999
"DXF R12 Output" (www.mydxf.blogspot.com)
 0 
SECTION
 2 
HEADER
 9 
$ACADVER
 1 
AC1009
 9 
$EXTMIN
 10 
 0 
 20 
 0 
 9 
$EXTMAX
 10 
 8.5 
 20 
 11 
 0 
ENDSEC
 0 
SECTION
 2 
ENTITIES
0
POLYLINE
8
Layer 1
62
7
70
0
10
0.000000
20
0.000000
66
1
0
VERTEX
8
Layer 1
10
216.439477
20
173.347121
70
0
0
VERTEX
8
Layer 1
10
214.868516
20
171.290650
70
0
0
VERTEX
8
Layer 1
10
212.936398
20
169.555647
70
0
0
VERTEX
8
Layer 1
10
211.720640
20
168.888236
70
0
0
VERTEX
8
Layer 1
10
210.377881
20
168.597857
70
0
0
VERTEX
8
Layer 1
10
208.979725
20
168.611789
70
0
0
VERTEX
8
Layer 1
10
207.618280
20
168.836312
70
0
0
VERTEX
8
Layer 1
10
204.930117
20
169.489501
70
0
0
VERTEX
8
Layer 1
10
201.314259
20
170.063316
70
0
0
VERTEX
8
Layer 1
10
199.487851
20
170.149925
70
0
0
VERTEX
8
Layer 1
10
197.632918
20
170.055709
70
0
0
VERTEX
8
Layer 1
10
195.694392
20
169.754250
70
0
0
VERTEX
8
Layer 1
10
193.824576
20
169.269236
70
0
0
VERTEX
8
Layer 1
10
192.018756
20
168.610590
70
0
0
VERTEX
8
Layer 1
10
190.272219
20
167.788233
70
0
0
VERTEX
8
Layer 1
10
188.545112
20
166.653709
70
0
0
VERTEX
8
Layer 1
10
187.121366
20
165.236660
70
0
0
VERTEX
8
Layer 1
10
185.999741
20
163.564124
70
0
0
VERTEX
8
Layer 1
10
185.178996
20
161.663136
70
0
0
VERTEX
8
Layer 1
10
184.084284
20
157.545894
70
0
0
VERTEX
8
Layer 1
10
183.374540
20
153.331418
70
0
0
VERTEX
8
Layer 1
10
182.917142
20
148.196192
70
0
0
VERTEX
8
Layer 1
10
182.906228
20
143.055014
70
0
0
VERTEX
8
Layer 1
10
183.188670
20
139.763601
70
0
0
VERTEX
8
Layer 1
10
183.517911
20
138.143692
70
0
0
VERTEX
8
Layer 1
10
184.030706
20
136.559501
70
0
0
VERTEX
8
Layer 1
10
184.584015
20
135.454867
70
0
0
VERTEX
8
Layer 1
10
185.011854
20
135.068989
70
0
0
VERTEX
8
Layer 1
10
185.599683
20
134.937607
70
0
0
VERTEX
8
Layer 1
10
186.181311
20
135.082301
70
0
0
VERTEX
8
Layer 1
10
186.678851
20
135.420471
70
0
0
VERTEX
8
Layer 1
10
187.462347
20
136.458960
70
0
0
VERTEX
8
Layer 1
10
188.488268
20
138.779683
70
0
0
VERTEX
8
Layer 1
10
189.216532
20
141.205579
70
0
0
VERTEX
8
Layer 1
10
189.798284
20
143.831565
70
0
0
VERTEX
8
Layer 1
10
190.235177
20
146.481364
70
0
0
VERTEX
8
Layer 1
10
190.348576
20
146.853309
70
0
0
VERTEX
8
Layer 1
10
190.537132
20
147.059808
70
0
0
VERTEX
8
Layer 1
10
191.134759
20
147.187800
70
0
0
VERTEX
8
Layer 1
10
192.846942
20
147.094204
70
0
0
VERTEX
8
Layer 1
10
194.561109
20
146.986717
70
0
0
VERTEX
8
Layer 1
10
197.026361
20
146.879561
70
0
0
VERTEX
8
Layer 1
10
199.479707
20
146.708905
70
0
0
VERTEX
8
Layer 1
10
200.935575
20
146.589512
70
0
0
VERTEX
8
Layer 1
10
202.395412
20
146.563384
70
0
0
VERTEX
8
Layer 1
10
203.442168
20
146.587858
70
0
0
VERTEX
8
Layer 1
10
205.364033
20
146.386114
70
0
0
VERTEX
8
Layer 1
10
205.886915
20
146.415549
70
0
0
VERTEX
8
Layer 1
10
206.332407
20
146.494593
70
0
0
VERTEX
8
Layer 1
10
209.451510
20
146.400997
70
0
0
VERTEX
8
Layer 1
10
212.568628
20
146.245885
70
0
0
VERTEX
8
Layer 1
10
214.290071
20
146.241585
70
0
0
VERTEX
8
Layer 1
10
215.989686
20
146.092427
70
0
0
VERTEX
8
Layer 1
10
217.133718
20
145.961210
70
0
0
VERTEX
8
Layer 1
10
218.281967
20
145.945583
70
0
0
VERTEX
8
Layer 1
10
219.431704
20
145.916066
70
0
0
VERTEX
8
Layer 1
10
220.580201
20
145.743177
70
0
0
VERTEX
8
Layer 1
10
221.725184
20
145.668432
70
0
0
VERTEX
8
Layer 1
10
222.937636
20
145.780219
70
0
0
VERTEX
8
Layer 1
10
224.564491
20
145.729617
70
0
0
VERTEX
8
Layer 1
10
226.189361
20
145.684969
70
0
0
SEQEND
8
Layer 1
0
POLYLINE
8
Layer 1
62
7
70
0
10
0.000000
20
0.000000
66
1
0
VERTEX
8
Layer 1
10
245.697065
20
186.430751
70
0
0
VERTEX
8
Layer 1
10
245.393705
20
187.032016
70
0
0
VERTEX
8
Layer 1
10
245.240660
20
187.674952
70
0
0
VERTEX
8
Layer 1
10
244.998566
20
188.978685
70
0
0
VERTEX
8
Layer 1
10
243.974299
20
191.382091
70
0
0
VERTEX
8
Layer 1
10
243.257652
20
192.468328
70
0
0
VERTEX
8
Layer 1
10
242.376549
20
193.473950
70
0
0
VERTEX
8
Layer 1
10
241.089642
20
194.665649
70
0
0
VERTEX
8
Layer 1
10
239.721128
20
195.724890
70
0
0
VERTEX
8
Layer 1
10
238.246946
20
196.616452
70
0
0
VERTEX
8
Layer 1
10
236.643035
20
197.305112
70
0
0
VERTEX
8
Layer 1
10
234.057398
20
198.054213
70
0
0
VERTEX
8
Layer 1
10
231.380479
20
198.495736
70
0
0
VERTEX
8
Layer 1
10
228.509506
20
198.566388
70
0
0
VERTEX
8
Layer 1
10
225.730309
20
198.233468
70
0
0
VERTEX
8
Layer 1
10
223.024535
20
197.507146
70
0
0
VERTEX
8
Layer 1
10
220.373827
20
196.397592
70
0
0
VERTEX
8
Layer 1
10
219.137314
20
195.703599
70
0
0
VERTEX
8
Layer 1
10
218.018376
20
194.901706
70
0
0
VERTEX
8
Layer 1
10
217.003618
20
193.983231
70
0
0
VERTEX
8
Layer 1
10
216.079644
20
192.939493
70
0
0
VERTEX
8
Layer 1
10
215.028258
20
192.077283
70
0
0
VERTEX
8
Layer 1
10
213.820106
20
191.415495
70
0
0
VERTEX
8
Layer 1
10
211.178244
20
189.535632
70
0
0
VERTEX
8
Layer 1
10
208.782445
20
187.330333
70
0
0
VERTEX
8
Layer 1
10
207.887907
20
186.329258
70
0
0
VERTEX
8
Layer 1
10
207.140708
20
185.253026
70
0
0
VERTEX
8
Layer 1
10
206.534399
20
184.092953
70
0
0
VERTEX
8
Layer 1
10
206.062532
20
182.840359
70
0
0
VERTEX
8
Layer 1
10
205.818573
20
181.788136
70
0
0
VERTEX
8
Layer 1
10
205.764835
20
180.811752
70
0
0
VERTEX
8
Layer 1
10
205.897566
20
179.916356
70
0
0
VERTEX
8
Layer 1
10
206.213014
20
179.107093
70
0
0
VERTEX
8
Layer 1
10
206.707427
20
178.389112
70
0
0
VERTEX
8
Layer 1
10
207.377055
20
177.767559
70
0
0
VERTEX
8
Layer 1
10
208.218145
20
177.247581
70
0
0
VERTEX
8
Layer 1
10
209.226945
20
176.834325
70
0
0
VERTEX
8
Layer 1
10
210.845862
20
176.446711
70
0
0
VERTEX
8
Layer 1
10
212.486607
20
176.336909
70
0
0
VERTEX
8
Layer 1
10
213.219833
20
176.186759
70
0
0
VERTEX
8
Layer 1
10
213.828043
20
175.643702
70
0
0
VERTEX
8
Layer 1
10
214.600625
20
174.849953
70
0
0
VERTEX
8
Layer 1
10
216.998574
20
173.301481
70
0
0
VERTEX
8
Layer 1
10
219.520546
20
172.020899
70
0
0
VERTEX
8
Layer 1
10
222.153643
20
171.001262
70
0
0
VERTEX
8
Layer 1
10
224.884967
20
170.235625
70
0
0
VERTEX
8
Layer 1
10
226.698683
20
169.919035
70
0
0
VERTEX
8
Layer 1
10
228.538196
20
169.786496
70
0
0
VERTEX
8
Layer 1
10
232.258895
20
169.976334
70
0
0
VERTEX
8
Layer 1
10
236.013328
20
170.714521
70
0
0
VERTEX
8
Layer 1
10
237.394120
20
171.263200
70
0
0
VERTEX
8
Layer 1
10
238.757053
20
172.032144
70
0
0
VERTEX
8
Layer 1
10
240.347161
20
173.006125
70
0
0
VERTEX
8
Layer 1
10
241.815013
20
174.089649
70
0
0
VERTEX
8
Layer 1
10
243.165848
20
175.278407
70
0
0
VERTEX
8
Layer 1
10
244.404908
20
176.568089
70
0
0
VERTEX
8
Layer 1
10
246.568660
20
179.432985
70
0
0
VERTEX
8
Layer 1
10
248.348187
20
182.649860
70
0
0
VERTEX
8
Layer 1
10
249.122092
20
184.346829
70
0
0
VERTEX
8
Layer 1
10
249.384774
20
185.229420
70
0
0
VERTEX
8
Layer 1
10
249.475311
20
186.168814
70
0
0
SEQEND
8
Layer 1
0
POLYLINE
8
Layer 1
62
7
70
0
10
0.000000
20
0.000000
66
1
0
VERTEX
8
Layer 1
10
236.206473
20
170.537250
70
0
0
VERTEX
8
Layer 1
10
237.150042
20
168.623653
70
0
0
VERTEX
8
Layer 1
10
237.536623
20
167.632129
70
0
0
VERTEX
8
Layer 1
10
237.793971
20
166.587026
70
0
0
VERTEX
8
Layer 1
10
238.060208
20
165.011103
70
0
0
VERTEX
8
Layer 1
10
238.217304
20
163.425259
70
0
0
VERTEX
8
Layer 1
10
238.351249
20
161.320832
70
0
0
VERTEX
8
Layer 1
10
238.415741
20
159.210452
70
0
0
VERTEX
8
Layer 1
10
238.167695
20
155.189782
70
0
0
VERTEX
8
Layer 1
10
237.908238
20
153.198175
70
0
0
VERTEX
8
Layer 1
10
237.487055
20
151.230628
70
0
0
VERTEX
8
Layer 1
10
237.046194
20
149.829662
70
0
0
VERTEX
8
Layer 1
10
236.699383
20
149.170106
70
0
0
VERTEX
8
Layer 1
10
236.206473
20
148.587444
70
0
0
VERTEX
8
Layer 1
10
235.825308
20
148.136330
70
0
0
VERTEX
8
Layer 1
10
235.588010
20
147.635607
70
0
0
VERTEX
8
Layer 1
10
235.386266
20
146.481364
70
0
0
VERTEX
8
Layer 1
10
235.154673
20
143.714735
70
0
0
VERTEX
8
Layer 1
10
234.803522
20
140.969438
70
0
0
VERTEX
8
Layer 1
10
234.181504
20
138.278712
70
0
0
VERTEX
8
Layer 1
10
233.137310
20
135.675794
70
0
0
VERTEX
8
Layer 1
10
232.653454
20
134.937277
70
0
0
VERTEX
8
Layer 1
10
232.084270
20
134.268212
70
0
0
VERTEX
8
Layer 1
10
231.557378
20
133.939964
70
0
0
VERTEX
8
Layer 1
10
230.859582
20
133.836942
70
0
0
VERTEX
8
Layer 1
10
230.154344
20
133.948232
70
0
0
VERTEX
8
Layer 1
10
229.605127
20
134.262921
70
0
0
VERTEX
8
Layer 1
10
228.911631
20
135.083459
70
0
0
VERTEX
8
Layer 1
10
228.379116
20
135.979403
70
0
0
VERTEX
8
Layer 1
10
227.678963
20
137.961791
70
0
0
VERTEX
8
Layer 1
10
226.977157
20
141.357714
70
0
0
VERTEX
8
Layer 1
10
226.573006
20
144.809199
70
0
0
VERTEX
8
Layer 1
10
226.461881
20
147.798987
70
0
0
VERTEX
8
Layer 1
10
226.540595
20
150.171635
70
0
0
VERTEX
8
Layer 1
10
226.718527
20
152.540314
70
0
0
SEQEND
8
Layer 1
0
POLYLINE
8
Layer 1
62
7
70
0
10
0.000000
20
0.000000
66
1
0
VERTEX
8
Layer 1
10
199.572311
20
146.566030
70
0
0
VERTEX
8
Layer 1
10
199.101023
20
145.174324
70
0
0
VERTEX
8
Layer 1
10
198.826187
20
143.854054
70
0
0
VERTEX
8
Layer 1
10
198.311904
20
141.399386
70
0
0
VERTEX
8
Layer 1
10
198.213388
20
140.167586
70
0
0
VERTEX
8
Layer 1
10
198.291729
20
138.932811
70
0
0
VERTEX
8
Layer 1
10
198.783192
20
136.539327
70
0
0
VERTEX
8
Layer 1
10
199.285156
20
135.429029
70
0
0
VERTEX
8
Layer 1
10
200.096185
20
134.445483
70
0
0
VERTEX
8
Layer 1
10
200.619068
20
134.058282
70
0
0
VERTEX
8
Layer 1
10
201.128059
20
133.873984
70
0
0
VERTEX
8
Layer 1
10
201.670785
20
133.888122
70
0
0
VERTEX
8
Layer 1
10
202.294870
20
134.096233
70
0
0
VERTEX
8
Layer 1
10
203.233974
20
134.668063
70
0
0
VERTEX
8
Layer 1
10
203.969681
20
135.414518
70
0
0
VERTEX
8
Layer 1
10
204.546637
20
136.292934
70
0
0
VERTEX
8
Layer 1
10
205.009492
20
137.260646
70
0
0
VERTEX
8
Layer 1
10
205.560444
20
138.972085
70
0
0
VERTEX
8
Layer 1
10
205.839290
20
140.720730
70
0
0
VERTEX
8
Layer 1
10
205.885261
20
144.280033
70
0
0
VERTEX
8
Layer 1
10
205.700053
20
145.239808
70
0
0
VERTEX
8
Layer 1
10
205.546595
20
146.211489
70
0
0
SEQEND
8
Layer 1
0
POLYLINE
8
Layer 1
62
7
70
0
10
0.000000
20
0.000000
66
1
0
VERTEX
8
Layer 1
10
229.353774
20
191.523974
70
0
0
VERTEX
8
Layer 1
10
229.243227
20
189.449353
70
0
0
VERTEX
8
Layer 1
10
228.786904
20
187.551591
70
0
0
VERTEX
8
Layer 1
10
227.958512
20
185.789261
70
0
0
VERTEX
8
Layer 1
10
226.731756
20
184.120941
70
0
0
VERTEX
8
Layer 1
10
225.320407
20
182.607718
70
0
0
VERTEX
8
Layer 1
10
223.752510
20
181.290606
70
0
0
VERTEX
8
Layer 1
10
222.053582
20
180.148677
70
0
0
VERTEX
8
Layer 1
10
220.249142
20
179.161002
70
0
0
VERTEX
8
Layer 1
10
216.425793
20
177.564699
70
0
0
VERTEX
8
Layer 1
10
212.486607
20
176.334264
70
0
0
SEQEND
8
Layer 1
0
POLYLINE
8
Layer 1
62
7
70
0
10
0.000000
20
0.000000
66
1
0
VERTEX
8
Layer 1
10
220.656930
20
145.600302
70
0
0
VERTEX
8
Layer 1
10
220.113212
20
142.284747
70
0
0
VERTEX
8
Layer 1
10
220.045744
20
138.927519
70
0
0
VERTEX
8
Layer 1
10
220.201021
20
137.838636
70
0
0
VERTEX
8
Layer 1
10
220.531915
20
136.826399
70
0
0
VERTEX
8
Layer 1
10
221.056285
20
135.897010
70
0
0
VERTEX
8
Layer 1
10
221.791991
20
135.056670
70
0
0
VERTEX
8
Layer 1
10
222.586154
20
134.532423
70
0
0
VERTEX
8
Layer 1
10
223.412562
20
134.351225
70
0
0
VERTEX
8
Layer 1
10
224.264768
20
134.415593
70
0
0
VERTEX
8
Layer 1
10
225.136321
20
134.628045
70
0
0
VERTEX
8
Layer 1
10
226.611040
20
135.343412
70
0
0
VERTEX
8
Layer 1
10
227.948838
20
136.294918
70
0
0
SEQEND
8
Layer 1
0
POLYLINE
8
Layer 1
62
7
70
0
10
0.000000
20
0.000000
66
1
0
VERTEX
8
Layer 1
10
239.897406
20
188.714102
70
0
0
VERTEX
8
Layer 1
10
239.375309
20
189.515458
70
0
0
VERTEX
8
Layer 1
10
238.736879
20
190.021142
70
0
0
VERTEX
8
Layer 1
10
238.040406
20
190.205358
70
0
0
VERTEX
8
Layer 1
10
237.344180
20
190.042309
70
0
0
VERTEX
8
Layer 1
10
236.842258
20
189.638530
70
0
0
VERTEX
8
Layer 1
10
236.616908
20
189.143719
70
0
0
VERTEX
8
Layer 1
10
236.558369
20
188.012957
70
0
0
SEQEND
8
Layer 1
0
POLYLINE
8
Layer 1
62
7
70
0
10
0.000000
20
0.000000
66
1
0
VERTEX
8
Layer 1
10
249.472665
20
186.168814
70
0
0
VERTEX
8
Layer 1
10
249.472830
20
185.959173
70
0
0
VERTEX
8
Layer 1
10
249.460097
20
186.134749
70
0
0
VERTEX
8
Layer 1
10
249.212216
20
186.408055
70
0
0
VERTEX
8
Layer 1
10
248.506937
20
186.491605
70
0
0
VERTEX
8
Layer 1
10
246.368114
20
186.355675
70
0
0
VERTEX
8
Layer 1
10
245.309741
20
186.198042
70
0
0
VERTEX
8
Layer 1
10
244.278901
20
185.840731
70
0
0
VERTEX
8
Layer 1
10
243.825141
20
185.649239
70
0
0
VERTEX
8
Layer 1
10
243.411068
20
185.380356
70
0
0
SEQEND
8
Layer 1
0
POLYLINE
8
Layer 1
62
7
70
0
10
0.000000
20
0.000000
66
1
0
VERTEX
8
Layer 1
10
138.900783
20
182.250339
70
0
0
VERTEX
8
Layer 1
10
137.977389
20
181.580407
70
0
0
VERTEX
8
Layer 1
10
137.244494
20
180.762391
70
0
0
VERTEX
8
Layer 1
10
136.674317
20
179.821840
70
0
0
VERTEX
8
Layer 1
10
136.239078
20
178.784302
70
0
0
VERTEX
8
Layer 1
10
135.836623
20
176.942639
70
0
0
VERTEX
8
Layer 1
10
135.878915
20
175.141656
70
0
0
VERTEX
8
Layer 1
10
136.281866
20
173.377383
70
0
0
VERTEX
8
Layer 1
10
136.961390
20
171.645853
70
0
0
VERTEX
8
Layer 1
10
137.948078
20
169.842182
70
0
0
VERTEX
8
Layer 1
10
139.141885
20
168.199990
70
0
0
VERTEX
8
Layer 1
10
140.506843
20
166.693231
70
0
0
VERTEX
8
Layer 1
10
142.006988
20
165.295861
70
0
0
VERTEX
8
Layer 1
10
143.707058
20
163.947769
70
0
0
VERTEX
8
Layer 1
10
145.507090
20
162.762148
70
0
0
VERTEX
8
Layer 1
10
147.397908
20
161.728827
70
0
0
VERTEX
8
Layer 1
10
149.370333
20
160.837637
70
0
0
VERTEX
8
Layer 1
10
152.297613
20
159.808409
70
0
0
VERTEX
8
Layer 1
10
153.806521
20
159.453537
70
0
0
VERTEX
8
Layer 1
10
155.349908
20
159.247493
70
0
0
VERTEX
8
Layer 1
10
157.391166
20
158.846319
70
0
0
VERTEX
8
Layer 1
10
159.392737
20
158.316161
70
0
0
VERTEX
8
Layer 1
10
161.025131
20
158.068197
70
0
0
VERTEX
8
Layer 1
10
162.637186
20
158.060839
70
0
0
VERTEX
8
Layer 1
10
164.212529
20
158.374948
70
0
0
VERTEX
8
Layer 1
10
165.734791
20
159.091389
70
0
0
VERTEX
8
Layer 1
10
166.383759
20
159.589312
70
0
0
VERTEX
8
Layer 1
10
166.855093
20
160.137898
70
0
0
VERTEX
8
Layer 1
10
167.150005
20
160.724311
70
0
0
VERTEX
8
Layer 1
10
167.269703
20
161.335715
70
0
0
VERTEX
8
Layer 1
10
167.215397
20
161.959273
70
0
0
VERTEX
8
Layer 1
10
166.988295
20
162.582149
70
0
0
VERTEX
8
Layer 1
10
166.589606
20
163.191506
70
0
0
VERTEX
8
Layer 1
10
166.020541
20
163.774509
70
0
0
VERTEX
8
Layer 1
10
164.777455
20
164.658546
70
0
0
VERTEX
8
Layer 1
10
163.431927
20
165.266757
70
0
0
VERTEX
8
Layer 1
10
161.993629
20
165.616998
70
0
0
VERTEX
8
Layer 1
10
160.472235
20
165.727131
70
0
0
VERTEX
8
Layer 1
10
160.115048
20
165.732423
70
0
0
VERTEX
8
Layer 1
10
158.781963
20
166.337532
70
0
0
VERTEX
8
Layer 1
10
157.391828
20
166.783148
70
0
0
VERTEX
8
Layer 1
10
155.988794
20
167.199494
70
0
0
VERTEX
8
Layer 1
10
154.617014
20
167.716795
70
0
0
VERTEX
8
Layer 1
10
152.326097
20
168.850533
70
0
0
VERTEX
8
Layer 1
10
150.132662
20
170.127146
70
0
0
VERTEX
8
Layer 1
10
148.036958
20
171.556556
70
0
0
VERTEX
8
Layer 1
10
146.039233
20
173.148684
70
0
0
VERTEX
8
Layer 1
10
143.111622
20
176.060751
70
0
0
VERTEX
8
Layer 1
10
140.628510
20
179.355801
70
0
0
VERTEX
8
Layer 1
10
139.859235
20
180.834820
70
0
0
VERTEX
8
Layer 1
10
138.990742
20
182.258277
70
0
0
VERTEX
8
Layer 1
10
138.980158
20
182.753047
70
0
0
SEQEND
8
Layer 1
0
POLYLINE
8
Layer 1
62
7
70
0
10
0.000000
20
0.000000
66
1
0
VERTEX
8
Layer 1
10
162.059733
20
162.798197
70
0
0
VERTEX
8
Layer 1
10
161.417368
20
162.603338
70
0
0
VERTEX
8
Layer 1
10
160.991518
20
162.084439
70
0
0
VERTEX
8
Layer 1
10
160.925722
20
161.416401
70
0
0
VERTEX
8
Layer 1
10
161.242157
20
160.824393
70
0
0
VERTEX
8
Layer 1
10
161.834164
20
160.507958
70
0
0
VERTEX
8
Layer 1
10
162.502203
20
160.573754
70
0
0
VERTEX
8
Layer 1
10
163.021102
20
160.999604
70
0
0
VERTEX
8
Layer 1
10
163.215961
20
161.641970
70
0
0
VERTEX
8
Layer 1
10
163.127948
20
162.084439
70
0
0
VERTEX
8
Layer 1
10
162.877310
20
162.459546
70
0
0
VERTEX
8
Layer 1
10
162.502203
20
162.710185
70
0
0
VERTEX
8
Layer 1
10
162.059733
20
162.798197
70
0
0
VERTEX
8
Layer 1
10
162.059733
20
162.798197
70
0
0
SEQEND
8
Layer 1
0
POLYLINE
8
Layer 1
62
7
70
0
10
0.000000
20
0.000000
66
1
0
VERTEX
8
Layer 1
10
100.134082
20
174.474245
70
0
0
VERTEX
8
Layer 1
10
98.563121
20
172.417774
70
0
0
VERTEX
8
Layer 1
10
96.631003
20
170.682771
70
0
0
VERTEX
8
Layer 1
10
95.415244
20
170.015360
70
0
0
VERTEX
8
Layer 1
10
94.072486
20
169.724980
70
0
0
VERTEX
8
Layer 1
10
92.674330
20
169.738912
70
0
0
VERTEX
8
Layer 1
10
91.312885
20
169.963436
70
0
0
VERTEX
8
Layer 1
10
88.624722
20
170.616625
70
0
0
VERTEX
8
Layer 1
10
85.008864
20
171.190439
70
0
0
VERTEX
8
Layer 1
10
83.182456
20
171.277049
70
0
0
VERTEX
8
Layer 1
10
81.327523
20
171.182833
70
0
0
VERTEX
8
Layer 1
10
79.388997
20
170.881373
70
0
0
VERTEX
8
Layer 1
10
77.519181
20
170.396360
70
0
0
VERTEX
8
Layer 1
10
75.713361
20
169.737713
70
0
0
VERTEX
8
Layer 1
10
73.966823
20
168.915356
70
0
0
VERTEX
8
Layer 1
10
72.239717
20
167.780833
70
0
0
VERTEX
8
Layer 1
10
70.815971
20
166.363784
70
0
0
VERTEX
8
Layer 1
10
69.694345
20
164.691247
70
0
0
VERTEX
8
Layer 1
10
68.873601
20
162.790260
70
0
0
VERTEX
8
Layer 1
10
67.778889
20
158.673018
70
0
0
VERTEX
8
Layer 1
10
67.069145
20
154.458541
70
0
0
VERTEX
8
Layer 1
10
66.611747
20
149.323316
70
0
0
VERTEX
8
Layer 1
10
66.600833
20
144.182137
70
0
0
VERTEX
8
Layer 1
10
66.883275
20
140.890725
70
0
0
VERTEX
8
Layer 1
10
67.212516
20
139.270815
70
0
0
VERTEX
8
Layer 1
10
67.725311
20
137.686625
70
0
0
VERTEX
8
Layer 1
10
68.278620
20
136.581991
70
0
0
VERTEX
8
Layer 1
10
68.706459
20
136.196113
70
0
0
VERTEX
8
Layer 1
10
69.294288
20
136.064731
70
0
0
VERTEX
8
Layer 1
10
69.875916
20
136.209425
70
0
0
VERTEX
8
Layer 1
10
70.373456
20
136.547595
70
0
0
VERTEX
8
Layer 1
10
71.156952
20
137.586083
70
0
0
VERTEX
8
Layer 1
10
72.182873
20
139.906807
70
0
0
VERTEX
8
Layer 1
10
72.911137
20
142.332702
70
0
0
VERTEX
8
Layer 1
10
73.492889
20
144.958688
70
0
0
VERTEX
8
Layer 1
10
73.929782
20
147.608487
70
0
0
VERTEX
8
Layer 1
10
74.043180
20
147.980433
70
0
0
VERTEX
8
Layer 1
10
74.231737
20
148.186932
70
0
0
VERTEX
8
Layer 1
10
74.829364
20
148.314924
70
0
0
VERTEX
8
Layer 1
10
76.541547
20
148.221328
70
0
0
VERTEX
8
Layer 1
10
78.255714
20
148.113841
70
0
0
VERTEX
8
Layer 1
10
80.720966
20
148.006685
70
0
0
VERTEX
8
Layer 1
10
83.174312
20
147.836029
70
0
0
VERTEX
8
Layer 1
10
84.630180
20
147.716636
70
0
0
VERTEX
8
Layer 1
10
86.090017
20
147.690508
70
0
0
VERTEX
8
Layer 1
10
87.136773
20
147.714982
70
0
0
VERTEX
8
Layer 1
10
89.058638
20
147.513237
70
0
0
VERTEX
8
Layer 1
10
89.581520
20
147.542672
70
0
0
VERTEX
8
Layer 1
10
90.027012
20
147.621716
70
0
0
VERTEX
8
Layer 1
10
93.146114
20
147.528120
70
0
0
VERTEX
8
Layer 1
10
96.263233
20
147.373008
70
0
0
VERTEX
8
Layer 1
10
97.984676
20
147.368709
70
0
0
VERTEX
8
Layer 1
10
99.684291
20
147.219550
70
0
0
VERTEX
8
Layer 1
10
100.828323
20
147.088334
70
0
0
VERTEX
8
Layer 1
10
101.976572
20
147.072707
70
0
0
VERTEX
8
Layer 1
10
103.126309
20
147.043189
70
0
0
VERTEX
8
Layer 1
10
104.274806
20
146.870301
70
0
0
VERTEX
8
Layer 1
10
105.419789
20
146.795556
70
0
0
VERTEX
8
Layer 1
10
106.632241
20
146.907342
70
0
0
VERTEX
8
Layer 1
10
108.259095
20
146.856741
70
0
0
VERTEX
8
Layer 1
10
109.883966
20
146.812092
70
0
0
SEQEND
8
Layer 1
0
POLYLINE
8
Layer 1
62
7
70
0
10
0.000000
20
0.000000
66
1
0
VERTEX
8
Layer 1
10
129.391670
20
187.557874
70
0
0
VERTEX
8
Layer 1
10
129.088309
20
188.159139
70
0
0
VERTEX
8
Layer 1
10
128.935265
20
188.802076
70
0
0
VERTEX
8
Layer 1
10
128.693171
20
190.105809
70
0
0
VERTEX
8
Layer 1
10
127.668904
20
192.509215
70
0
0
VERTEX
8
Layer 1
10
126.952256
20
193.595452
70
0
0
VERTEX
8
Layer 1
10
126.071154
20
194.601074
70
0
0
VERTEX
8
Layer 1
10
124.784247
20
195.792772
70
0
0
VERTEX
8
Layer 1
10
123.415733
20
196.852014
70
0
0
VERTEX
8
Layer 1
10
121.941550
20
197.743576
70
0
0
VERTEX
8
Layer 1
10
120.337640
20
198.432236
70
0
0
VERTEX
8
Layer 1
10
117.752003
20
199.181336
70
0
0
VERTEX
8
Layer 1
10
115.075084
20
199.622859
70
0
0
VERTEX
8
Layer 1
10
112.204111
20
199.693511
70
0
0
VERTEX
8
Layer 1
10
109.424914
20
199.360591
70
0
0
VERTEX
8
Layer 1
10
106.719140
20
198.634270
70
0
0
VERTEX
8
Layer 1
10
104.068431
20
197.524716
70
0
0
VERTEX
8
Layer 1
10
102.831919
20
196.830723
70
0
0
VERTEX
8
Layer 1
10
101.712981
20
196.028830
70
0
0
VERTEX
8
Layer 1
10
100.698223
20
195.110355
70
0
0
VERTEX
8
Layer 1
10
99.774249
20
194.066616
70
0
0
VERTEX
8
Layer 1
10
98.722863
20
193.204406
70
0
0
VERTEX
8
Layer 1
10
97.514710
20
192.542618
70
0
0
VERTEX
8
Layer 1
10
94.872849
20
190.662756
70
0
0
VERTEX
8
Layer 1
10
92.477050
20
188.457457
70
0
0
VERTEX
8
Layer 1
10
91.582512
20
187.456382
70
0
0
VERTEX
8
Layer 1
10
90.835313
20
186.380149
70
0
0
VERTEX
8
Layer 1
10
90.229004
20
185.220077
70
0
0
VERTEX
8
Layer 1
10
89.757137
20
183.967483
70
0
0
VERTEX
8
Layer 1
10
89.513178
20
182.915259
70
0
0
VERTEX
8
Layer 1
10
89.459440
20
181.938876
70
0
0
VERTEX
8
Layer 1
10
89.592170
20
181.043479
70
0
0
VERTEX
8
Layer 1
10
89.907619
20
180.234217
70
0
0
VERTEX
8
Layer 1
10
90.402032
20
179.516236
70
0
0
VERTEX
8
Layer 1
10
91.071660
20
178.894683
70
0
0
VERTEX
8
Layer 1
10
91.912749
20
178.374705
70
0
0
VERTEX
8
Layer 1
10
92.921550
20
177.961449
70
0
0
VERTEX
8
Layer 1
10
94.540467
20
177.573835
70
0
0
VERTEX
8
Layer 1
10
96.181212
20
177.464033
70
0
0
VERTEX
8
Layer 1
10
96.914438
20
177.313882
70
0
0
VERTEX
8
Layer 1
10
97.522648
20
176.770825
70
0
0
VERTEX
8
Layer 1
10
98.295230
20
175.977076
70
0
0
VERTEX
8
Layer 1
10
100.693179
20
174.428604
70
0
0
VERTEX
8
Layer 1
10
103.215151
20
173.148023
70
0
0
VERTEX
8
Layer 1
10
105.848248
20
172.128386
70
0
0
VERTEX
8
Layer 1
10
108.579572
20
171.362749
70
0
0
VERTEX
8
Layer 1
10
110.393288
20
171.046159
70
0
0
VERTEX
8
Layer 1
10
112.232801
20
170.913619
70
0
0
VERTEX
8
Layer 1
10
115.953500
20
171.103458
70
0
0
VERTEX
8
Layer 1
10
119.707933
20
171.841644
70
0
0
VERTEX
8
Layer 1
10
121.088725
20
172.390323
70
0
0
VERTEX
8
Layer 1
10
122.451658
20
173.159268
70
0
0
VERTEX
8
Layer 1
10
124.041766
20
174.133248
70
0
0
VERTEX
8
Layer 1
10
125.509618
20
175.216772
70
0
0
VERTEX
8
Layer 1
10
126.860453
20
176.405530
70
0
0
VERTEX
8
Layer 1
10
128.099513
20
177.695212
70
0
0
VERTEX
8
Layer 1
10
130.263265
20
180.560109
70
0
0
VERTEX
8
Layer 1
10
132.042792
20
183.776983
70
0
0
VERTEX
8
Layer 1
10
132.816697
20
185.473953
70
0
0
VERTEX
8
Layer 1
10
133.079379
20
186.356544
70
0
0
VERTEX
8
Layer 1
10
133.169916
20
187.295937
70
0
0
SEQEND
8
Layer 1
0
POLYLINE
8
Layer 1
62
7
70
0
10
0.000000
20
0.000000
66
1
0
VERTEX
8
Layer 1
10
119.901078
20
171.664374
70
0
0
VERTEX
8
Layer 1
10
120.844647
20
169.750777
70
0
0
VERTEX
8
Layer 1
10
121.231228
20
168.759252
70
0
0
VERTEX
8
Layer 1
10
121.488576
20
167.714149
70
0
0
VERTEX
8
Layer 1
10
121.754813
20
166.138227
70
0
0
VERTEX
8
Layer 1
10
121.911909
20
164.552383
70
0
0
VERTEX
8
Layer 1
10
122.045854
20
162.447956
70
0
0
VERTEX
8
Layer 1
10
122.110346
20
160.337575
70
0
0
VERTEX
8
Layer 1
10
121.862300
20
156.316906
70
0
0
VERTEX
8
Layer 1
10
121.602843
20
154.325299
70
0
0
VERTEX
8
Layer 1
10
121.181660
20
152.357752
70
0
0
VERTEX
8
Layer 1
10
120.740798
20
150.956785
70
0
0
VERTEX
8
Layer 1
10
120.393988
20
150.297229
70
0
0
VERTEX
8
Layer 1
10
119.901078
20
149.714568
70
0
0
VERTEX
8
Layer 1
10
119.519913
20
149.263454
70
0
0
VERTEX
8
Layer 1
10
119.282615
20
148.762731
70
0
0
VERTEX
8
Layer 1
10
119.080871
20
147.608487
70
0
0
VERTEX
8
Layer 1
10
118.849278
20
144.841859
70
0
0
VERTEX
8
Layer 1
10
118.498127
20
142.096562
70
0
0
VERTEX
8
Layer 1
10
117.876109
20
139.405835
70
0
0
VERTEX
8
Layer 1
10
116.831915
20
136.802917
70
0
0
VERTEX
8
Layer 1
10
116.348059
20
136.064400
70
0
0
VERTEX
8
Layer 1
10
115.778875
20
135.395336
70
0
0
VERTEX
8
Layer 1
10
115.251983
20
135.067088
70
0
0
VERTEX
8
Layer 1
10
114.554186
20
134.964066
70
0
0
VERTEX
8
Layer 1
10
113.848949
20
135.075356
70
0
0
VERTEX
8
Layer 1
10
113.299732
20
135.390044
70
0
0
VERTEX
8
Layer 1
10
112.606235
20
136.210582
70
0
0
VERTEX
8
Layer 1
10
112.073721
20
137.106526
70
0
0
VERTEX
8
Layer 1
10
111.373568
20
139.088915
70
0
0
VERTEX
8
Layer 1
10
110.671762
20
142.484837
70
0
0
VERTEX
8
Layer 1
10
110.267611
20
145.936323
70
0
0
VERTEX
8
Layer 1
10
110.156486
20
148.926111
70
0
0
VERTEX
8
Layer 1
10
110.235200
20
151.298759
70
0
0
VERTEX
8
Layer 1
10
110.413132
20
153.667438
70
0
0
SEQEND
8
Layer 1
0
POLYLINE
8
Layer 1
62
7
70
0
10
0.000000
20
0.000000
66
1
0
VERTEX
8
Layer 1
10
83.266916
20
147.693154
70
0
0
VERTEX
8
Layer 1
10
82.795627
20
146.301447
70
0
0
VERTEX
8
Layer 1
10
82.520792
20
144.981178
70
0
0
VERTEX
8
Layer 1
10
82.006509
20
142.526509
70
0
0
VERTEX
8
Layer 1
10
81.907993
20
141.294710
70
0
0
VERTEX
8
Layer 1
10
81.986334
20
140.059934
70
0
0
VERTEX
8
Layer 1
10
82.477797
20
137.666450
70
0
0
VERTEX
8
Layer 1
10
82.979761
20
136.556153
70
0
0
VERTEX
8
Layer 1
10
83.790790
20
135.572607
70
0
0
VERTEX
8
Layer 1
10
84.313672
20
135.185406
70
0
0
VERTEX
8
Layer 1
10
84.822664
20
135.001107
70
0
0
VERTEX
8
Layer 1
10
85.365390
20
135.015246
70
0
0
VERTEX
8
Layer 1
10
85.989475
20
135.223357
70
0
0
VERTEX
8
Layer 1
10
86.928579
20
135.795187
70
0
0
VERTEX
8
Layer 1
10
87.664285
20
136.541642
70
0
0
VERTEX
8
Layer 1
10
88.241242
20
137.420057
70
0
0
VERTEX
8
Layer 1
10
88.704097
20
138.387770
70
0
0
VERTEX
8
Layer 1
10
89.255049
20
140.099208
70
0
0
VERTEX
8
Layer 1
10
89.533895
20
141.847854
70
0
0
VERTEX
8
Layer 1
10
89.579866
20
145.407157
70
0
0
VERTEX
8
Layer 1
10
89.394658
20
146.366931
70
0
0
VERTEX
8
Layer 1
10
89.241200
20
147.338613
70
0
0
SEQEND
8
Layer 1
0
POLYLINE
8
Layer 1
62
7
70
0
10
0.000000
20
0.000000
66
1
0
VERTEX
8
Layer 1
10
113.048378
20
192.648451
70
0
0
VERTEX
8
Layer 1
10
112.937832
20
190.573831
70
0
0
VERTEX
8
Layer 1
10
112.481509
20
188.676068
70
0
0
VERTEX
8
Layer 1
10
111.653116
20
186.913739
70
0
0
VERTEX
8
Layer 1
10
110.426361
20
185.245419
70
0
0
VERTEX
8
Layer 1
10
109.015012
20
183.732195
70
0
0
VERTEX
8
Layer 1
10
107.447115
20
182.415084
70
0
0
VERTEX
8
Layer 1
10
105.748187
20
181.273155
70
0
0
VERTEX
8
Layer 1
10
103.943747
20
180.285480
70
0
0
VERTEX
8
Layer 1
10
100.120398
20
178.689176
70
0
0
VERTEX
8
Layer 1
10
96.181212
20
177.458741
70
0
0
SEQEND
8
Layer 1
0
POLYLINE
8
Layer 1
62
7
70
0
10
0.000000
20
0.000000
66
1
0
VERTEX
8
Layer 1
10
104.351535
20
146.727426
70
0
0
VERTEX
8
Layer 1
10
103.807817
20
143.411870
70
0
0
VERTEX
8
Layer 1
10
103.740348
20
140.054643
70
0
0
VERTEX
8
Layer 1
10
103.895626
20
138.965760
70
0
0
VERTEX
8
Layer 1
10
104.226520
20
137.953523
70
0
0
VERTEX
8
Layer 1
10
104.750890
20
137.024134
70
0
0
VERTEX
8
Layer 1
10
105.486596
20
136.183793
70
0
0
VERTEX
8
Layer 1
10
106.280759
20
135.659547
70
0
0
VERTEX
8
Layer 1
10
107.107167
20
135.478349
70
0
0
VERTEX
8
Layer 1
10
107.959372
20
135.542717
70
0
0
VERTEX
8
Layer 1
10
108.830925
20
135.755169
70
0
0
VERTEX
8
Layer 1
10
110.305645
20
136.470535
70
0
0
VERTEX
8
Layer 1
10
111.643443
20
137.422042
70
0
0
SEQEND
8
Layer 1
0
POLYLINE
8
Layer 1
62
7
70
0
10
0.000000
20
0.000000
66
1
0
VERTEX
8
Layer 1
10
123.592011
20
189.841226
70
0
0
VERTEX
8
Layer 1
10
123.069914
20
190.642581
70
0
0
VERTEX
8
Layer 1
10
122.431484
20
191.148266
70
0
0
VERTEX
8
Layer 1
10
121.735010
20
191.332482
70
0
0
VERTEX
8
Layer 1
10
121.038785
20
191.169432
70
0
0
VERTEX
8
Layer 1
10
120.536863
20
190.765654
70
0
0
VERTEX
8
Layer 1
10
120.311512
20
190.270842
70
0
0
VERTEX
8
Layer 1
10
120.252974
20
189.140081
70
0
0
SEQEND
8
Layer 1
0
POLYLINE
8
Layer 1
62
7
70
0
10
0.000000
20
0.000000
66
1
0
VERTEX
8
Layer 1
10
133.167270
20
187.293291
70
0
0
VERTEX
8
Layer 1
10
133.167435
20
187.083651
70
0
0
VERTEX
8
Layer 1
10
133.154702
20
187.259226
70
0
0
VERTEX
8
Layer 1
10
132.906821
20
187.532532
70
0
0
VERTEX
8
Layer 1
10
132.201542
20
187.616083
70
0
0
VERTEX
8
Layer 1
10
130.062719
20
187.480153
70
0
0
VERTEX
8
Layer 1
10
129.004346
20
187.322520
70
0
0
VERTEX
8
Layer 1
10
127.973505
20
186.965208
70
0
0
VERTEX
8
Layer 1
10
127.519746
20
186.773717
70
0
0
VERTEX
8
Layer 1
10
127.105673
20
186.504834
70
0
0
SEQEND
8
Layer 1
0
POLYLINE
8
Layer 1
62
7
70
0
10
0.000000
20
0.000000
66
1
0
VERTEX
8
Layer 1
10
22.595388
20
183.377463
70
0
0
VERTEX
8
Layer 1
10
21.671994
20
182.707531
70
0
0
VERTEX
8
Layer 1
10
20.939099
20
181.889514
70
0
0
VERTEX
8
Layer 1
10
20.368922
20
180.948963
70
0
0
VERTEX
8
Layer 1
10
19.933683
20
179.911426
70
0
0
VERTEX
8
Layer 1
10
19.531228
20
178.069763
70
0
0
VERTEX
8
Layer 1
10
19.573520
20
176.268779
70
0
0
VERTEX
8
Layer 1
10
19.976471
20
174.504507
70
0
0
VERTEX
8
Layer 1
10
20.655995
20
172.772976
70
0
0
VERTEX
8
Layer 1
10
21.642683
20
170.969306
70
0
0
VERTEX
8
Layer 1
10
22.836489
20
169.327114
70
0
0
VERTEX
8
Layer 1
10
24.201448
20
167.820355
70
0
0
VERTEX
8
Layer 1
10
25.701593
20
166.422984
70
0
0
VERTEX
8
Layer 1
10
27.401662
20
165.074893
70
0
0
VERTEX
8
Layer 1
10
29.201695
20
163.889271
70
0
0
VERTEX
8
Layer 1
10
31.092513
20
162.855951
70
0
0
VERTEX
8
Layer 1
10
33.064938
20
161.964761
70
0
0
VERTEX
8
Layer 1
10
35.992218
20
160.935533
70
0
0
VERTEX
8
Layer 1
10
37.501126
20
160.580661
70
0
0
VERTEX
8
Layer 1
10
39.044513
20
160.374617
70
0
0
VERTEX
8
Layer 1
10
41.085771
20
159.973443
70
0
0
VERTEX
8
Layer 1
10
43.087342
20
159.443285
70
0
0
VERTEX
8
Layer 1
10
44.719736
20
159.195321
70
0
0
VERTEX
8
Layer 1
10
46.331791
20
159.187962
70
0
0
VERTEX
8
Layer 1
10
47.907134
20
159.502072
70
0
0
VERTEX
8
Layer 1
10
49.429396
20
160.218513
70
0
0
VERTEX
8
Layer 1
10
50.078363
20
160.716435
70
0
0
VERTEX
8
Layer 1
10
50.549698
20
161.265021
70
0
0
VERTEX
8
Layer 1
10
50.844610
20
161.851435
70
0
0
VERTEX
8
Layer 1
10
50.964308
20
162.462838
70
0
0
VERTEX
8
Layer 1
10
50.910001
20
163.086396
70
0
0
VERTEX
8
Layer 1
10
50.682899
20
163.709272
70
0
0
VERTEX
8
Layer 1
10
50.284211
20
164.318630
70
0
0
VERTEX
8
Layer 1
10
49.715146
20
164.901632
70
0
0
VERTEX
8
Layer 1
10
48.472060
20
165.785670
70
0
0
VERTEX
8
Layer 1
10
47.126532
20
166.393880
70
0
0
VERTEX
8
Layer 1
10
45.688234
20
166.744122
70
0
0
VERTEX
8
Layer 1
10
44.166840
20
166.854255
70
0
0
VERTEX
8
Layer 1
10
43.809653
20
166.859546
70
0
0
VERTEX
8
Layer 1
10
42.476568
20
167.464656
70
0
0
VERTEX
8
Layer 1
10
41.086433
20
167.910272
70
0
0
VERTEX
8
Layer 1
10
39.683399
20
168.326618
70
0
0
VERTEX
8
Layer 1
10
38.311618
20
168.843919
70
0
0
VERTEX
8
Layer 1
10
36.020702
20
169.977657
70
0
0
VERTEX
8
Layer 1
10
33.827267
20
171.254270
70
0
0
VERTEX
8
Layer 1
10
31.731563
20
172.683680
70
0
0
VERTEX
8
Layer 1
10
29.733838
20
174.275808
70
0
0
VERTEX
8
Layer 1
10
26.806227
20
177.187874
70
0
0
VERTEX
8
Layer 1
10
24.323115
20
180.482925
70
0
0
VERTEX
8
Layer 1
10
23.553840
20
181.961944
70
0
0
VERTEX
8
Layer 1
10
22.685346
20
183.385400
70
0
0
VERTEX
8
Layer 1
10
22.674763
20
183.880171
70
0
0
SEQEND
8
Layer 1
0
POLYLINE
8
Layer 1
62
7
70
0
10
0.000000
20
0.000000
66
1
0
VERTEX
8
Layer 1
10
45.754338
20
163.925321
70
0
0
VERTEX
8
Layer 1
10
45.111972
20
163.730461
70
0
0
VERTEX
8
Layer 1
10
44.686123
20
163.211562
70
0
0
VERTEX
8
Layer 1
10
44.620327
20
162.543524
70
0
0
VERTEX
8
Layer 1
10
44.936762
20
161.951517
70
0
0
VERTEX
8
Layer 1
10
45.528769
20
161.635082
70
0
0
VERTEX
8
Layer 1
10
46.196807
20
161.700878
70
0
0
VERTEX
8
Layer 1
10
46.715706
20
162.126727
70
0
0
VERTEX
8
Layer 1
10
46.910566
20
162.769093
70
0
0
VERTEX
8
Layer 1
10
46.822553
20
163.211562
70
0
0
VERTEX
8
Layer 1
10
46.571915
20
163.586670
70
0
0
VERTEX
8
Layer 1
10
46.196807
20
163.837308
70
0
0
VERTEX
8
Layer 1
10
45.754338
20
163.925321
70
0
0
VERTEX
8
Layer 1
10
45.754338
20
163.925321
70
0
0
SEQEND
8
Layer 1
 0 
ENDSEC
 0 
EOF