0
SECTION
2
HEADER
9
$INSUNITS
70
4
9
$ACADVER
1
AC1014
9
$HANDSEED
5
FFFF
0
ENDSEC
0
SECTION
2
TABLES
0
TABLE
2
VPORT
5
8
100
AcDbSymbolTable
0
ENDTAB
0
TABLE
2
LTYPE
5
5
100
AcDbSymbolTable
0
LTYPE
5
14
100
AcDbSymbolTableRecord
100
AcDbLinetypeTableRecord
2
BYBLOCK
70
0
0
LTYPE
5
15
100
AcDbSymbolTableRecord
100
AcDbLinetypeTableRecord
2
BYLAYER
70
0
0
LTYPE
5
16
100
AcDbSymbolTableRecord
100
AcDbLinetypeTableRecord
2
DASHED
70
0
3
Dashed __ __ __ __ __ __ __ __ __ __ __ __ __ _
72
65
73
2
40
0.75
49
0.5
74
0
49
-0.25
74
0
0
ENDTAB
0
TABLE
2
LAYER
5
2
100
AcDbSymbolTable
70
2
0
LAYER
5
50
100
AcDbSymbolTableRecord
100
AcDbLayerTableRecord
2
0
70
0
62
7
6
CONTINUOUS
0
ENDTAB
0
TABLE
2
STYLE
5
3
100
AcDbSymbolTable
70
1
0
STYLE
5
11
100
AcDbSymbolTableRecord
100
AcDbTextStyleTableRecord
2
STANDARD
70
0
0
ENDTAB
0
TABLE
2
VIEW
5
6
100
AcDbSymbolTable
70
0
0
ENDTAB
0
TABLE
2
UCS
5
7
100
AcDbSymbolTable
70
0
0
ENDTAB
0
TABLE
2
APPID
5
9
100
AcDbSymbolTable
70
2
0
APPID
5
12
100
AcDbSymbolTableRecord
100
AcDbRegAppTableRecord
2
ACAD
70
0
0
ENDTAB
0
TABLE
2
DIMSTYLE
5
A
100
AcDbSymbolTable
70
1
0
ENDTAB
0
TABLE
2
BLOCK_RECORD
5
1
100
AcDbSymbolTable
70
1
0
BLOCK_RECORD
5
1F
100
AcDbSymbolTableRecord
100
AcDbBlockTableRecord
2
*MODEL_SPACE
0
BLOCK_RECORD
5
1B
100
AcDbSymbolTableRecord
100
AcDbBlockTableRecord
2
*PAPER_SPACE
0
ENDTAB
0
ENDSEC
0
SECTION
2
BLOCKS
0
BLOCK
5
20
100
AcDbEntity
100
AcDbBlockBegin
2
*MODEL_SPACE
0
ENDBLK
5
21
100
AcDbEntity
100
AcDbBlockEnd
0
BLOCK
5
1C
100
AcDbEntity
100
AcDbBlockBegin
2
*PAPER_SPACE
0
ENDBLK
5
1D
100
AcDbEntity
100
AcDbBlockEnd
0
ENDSEC
0
SECTION
2
ENTITIES
0
LWPOLYLINE
5
100
100
AcDbEntity
8
0
100
AcDbPolyline
90
4
70
1
43
0.0
10
39.999999999999986
20
-60
10
-39.999999999999964
20
-60.000000000000014
10
-40.000000000000036
20
75.999999999999972
10
39.999999999999972
20
76.000000000000014
0
LWPOLYLINE
5
101
100
AcDbEntity
8
0
100
AcDbPolyline
90
4
70
1
43
0.0
10
46.128542678983905
20
-30.537385197152037
10
126.12854267898391
20
-30.537385197152037
10
126.12854267898391
20
-60.537385197152034
10
46.128542678983905
20
-60.537385197152034
0
CIRCLE
5
102
100
AcDbEntity
8
0
100
AcDbCircle
10
69.322993571551237
20
-0.021519478087101973
30
0
40
19.999999999999993
210
0
220
0
230
1
0
CIRCLE
5
103
100
AcDbEntity
8
0
100
AcDbCircle
10
63.568005458376433
20
0.2086800464399019
30
0
40
2
210
0
220
0
230
1
0
CIRCLE
5
104
100
AcDbEntity
8
0
100
AcDbCircle
10
119.32299357155124
20
-0.021519478087101973
30
0
40
17.5
210
0
220
0
230
1
0
CIRCLE
5
105
100
AcDbEntity
8
0
100
AcDbCircle
10
113.56800545837643
20
0.2086800464399019
30
0
40
2
210
0
220
0
230
1
0
CIRCLE
5
106
100
AcDbEntity
8
0
100
AcDbCircle
10
89.322993571551237
20
39.9784805219129
30
0
40
19.999999999999993
210
0
220
0
230
1
0
CIRCLE
5
107
100
AcDbEntity
8
0
100
AcDbCircle
10
83.568005458376433
20
40.208680046439902
30
0
40
2
210
0
220
0
230
1
0
LWPOLYLINE
5
108
100
AcDbEntity
8
0
100
AcDbPolyline
90
4
70
1
43
0.0
10
150.06607368593023
20
77.638511675950198
10
155.06607368593023
20
77.638511675950198
10
155.06607368593023
20
-42.361488324049795
10
150.06607368593023
20
-42.361488324049795
0
LWPOLYLINE
5
109
100
AcDbEntity
8
0
100
AcDbPolyline
90
4
70
1
43
0.0
10
116.91388501715473
20
56.314334301634887
10
128.91388501715471
20
56.314334301634887
10
128.91388501715471
20
50.314334301634879
10
116.91388501715473
20
50.314334301634879
0
LWPOLYLINE
5
110
100
AcDbEntity
8
0
100
AcDbPolyline
90
4
70
1
43
0.0
10
119.087101183237
20
39.767327169539769
10
124.087101183237
20
39.767327169539769
10
124.087101183237
20
33.767327169539769
10
119.087101183237
20
33.767327169539769
0
LWPOLYLINE
5
111
100
AcDbEntity
8
0
100
AcDbPolyline
90
4
70
1
43
0.0
10
134.087101183237
20
33.767327169539769
10
129.087101183237
20
33.767327169539769
10
129.087101183237
20
39.767327169539769
10
134.087101183237
20
39.767327169539769
0
LWPOLYLINE
5
112
100
AcDbEntity
8
0
100
AcDbPolyline
90
4
70
1
43
0.0
10
134.087101183237
20
39.767327169539769
10
134.087101183237
20
33.767327169539769
10
129.087101183237
20
33.767327169539769
10
129.087101183237
20
39.767327169539769
0
LWPOLYLINE
5
113
100
AcDbEntity
8
0
100
AcDbPolyline
90
4
70
1
43
0.0
10
128.91388501715471
20
50.314334301634879
10
116.91388501715473
20
50.314334301634879
10
116.91388501715473
20
56.314334301634887
10
128.91388501715471
20
56.314334301634887
0
LWPOLYLINE
5
114
100
AcDbEntity
8
0
100
AcDbPolyline
90
4
70
1
43
0.0
10
124.087101183237
20
39.767327169539769
10
124.087101183237
20
33.767327169539769
10
119.087101183237
20
33.767327169539769
10
119.087101183237
20
39.767327169539769
0
LWPOLYLINE
5
115
100
AcDbEntity
8
0
100
AcDbPolyline
90
4
70
1
43
0.0
10
54.087101183237003
20
44.767327169539769
10
54.087101183237003
20
38.767327169539755
10
49.087101183237003
20
38.767327169539755
10
49.087101183237003
20
44.767327169539769
0
LWPOLYLINE
5
116
100
AcDbEntity
8
0
100
AcDbPolyline
90
4
70
1
43
0.0
10
59.087101183237003
20
44.767327169539769
10
64.087101183236996
20
44.767327169539769
10
64.087101183236996
20
38.767327169539755
10
59.087101183237003
20
38.767327169539755
0
LWPOLYLINE
5
117
100
AcDbEntity
8
0
100
AcDbPolyline
90
4
70
1
43
0.0
10
46.913885017154726
20
55.314334301634872
10
46.913885017154726
20
61.314334301634887
10
58.913885017154719
20
61.314334301634887
10
58.913885017154719
20
55.314334301634872
0
LWPOLYLINE
5
118
100
AcDbEntity
8
0
100
AcDbPolyline
90
4
70
1
43
0.0
10
59.087101183237003
20
38.767327169539755
10
59.087101183237003
20
44.767327169539769
10
64.087101183236996
20
44.767327169539769
10
64.087101183236996
20
38.767327169539755
0
LWPOLYLINE
5
119
100
AcDbEntity
8
0
100
AcDbPolyline
90
4
70
1
43
0.0
10
46.913885017154726
20
55.314334301634872
10
46.913885017154726
20
61.314334301634887
10
58.913885017154719
20
61.314334301634887
10
58.913885017154719
20
55.314334301634872
0
LWPOLYLINE
5
120
100
AcDbEntity
8
0
100
AcDbPolyline
90
4
70
1
43
0.0
10
54.087101183237003
20
38.767327169539755
10
49.087101183237003
20
38.767327169539755
10
49.087101183237003
20
44.767327169539769
10
54.087101183237003
20
44.767327169539769
0
ENDSEC
0
SECTION
2
OBJECTS
0
DICTIONARY
5
C
100
AcDbDictionary
3
ACAD_GROUP
350
D
3
ACAD_MLINESTYLE
350
17
0
DICTIONARY
5
D
100
AcDbDictionary
0
DICTIONARY
5
1A
330
C
100
AcDbDictionary
0
DICTIONARY
5
17
100
AcDbDictionary
0
ENDSEC
0
EOF
