0
SECTION
2
HEADER
9
$INSUNITS
70
4
9
$ACADVER
1
AC1014
9
$HANDSEED
5
FFFF
0
ENDSEC
0
SECTION
2
TABLES
0
TABLE
2
VPORT
5
8
100
AcDbSymbolTable
0
ENDTAB
0
TABLE
2
LTYPE
5
5
100
AcDbSymbolTable
0
LTYPE
5
14
100
AcDbSymbolTableRecord
100
AcDbLinetypeTableRecord
2
BYBLOCK
70
0
0
LTYPE
5
15
100
AcDbSymbolTableRecord
100
AcDbLinetypeTableRecord
2
BYLAYER
70
0
0
LTYPE
5
16
100
AcDbSymbolTableRecord
100
AcDbLinetypeTableRecord
2
DASHED
70
0
3
Dashed __ __ __ __ __ __ __ __ __ __ __ __ __ _
72
65
73
2
40
0.75
49
0.5
74
0
49
-0.25
74
0
0
ENDTAB
0
TABLE
2
LAYER
5
2
100
AcDbSymbolTable
70
2
0
LAYER
5
50
100
AcDbSymbolTableRecord
100
AcDbLayerTableRecord
2
0
70
0
62
7
6
CONTINUOUS
0
ENDTAB
0
TABLE
2
STYLE
5
3
100
AcDbSymbolTable
70
1
0
STYLE
5
11
100
AcDbSymbolTableRecord
100
AcDbTextStyleTableRecord
2
STANDARD
70
0
0
ENDTAB
0
TABLE
2
VIEW
5
6
100
AcDbSymbolTable
70
0
0
ENDTAB
0
TABLE
2
UCS
5
7
100
AcDbSymbolTable
70
0
0
ENDTAB
0
TABLE
2
APPID
5
9
100
AcDbSymbolTable
70
2
0
APPID
5
12
100
AcDbSymbolTableRecord
100
AcDbRegAppTableRecord
2
ACAD
70
0
0
ENDTAB
0
TABLE
2
DIMSTYLE
5
A
100
AcDbSymbolTable
70
1
0
ENDTAB
0
TABLE
2
BLOCK_RECORD
5
1
100
AcDbSymbolTable
70
1
0
BLOCK_RECORD
5
1F
100
AcDbSymbolTableRecord
100
AcDbBlockTableRecord
2
*MODEL_SPACE
0
BLOCK_RECORD
5
1B
100
AcDbSymbolTableRecord
100
AcDbBlockTableRecord
2
*PAPER_SPACE
0
ENDTAB
0
ENDSEC
0
SECTION
2
BLOCKS
0
BLOCK
5
20
100
AcDbEntity
100
AcDbBlockBegin
2
*MODEL_SPACE
0
ENDBLK
5
21
100
AcDbEntity
100
AcDbBlockEnd
0
BLOCK
5
1C
100
AcDbEntity
100
AcDbBlockBegin
2
*PAPER_SPACE
0
ENDBLK
5
1D
100
AcDbEntity
100
AcDbBlockEnd
0
ENDSEC
0
SECTION
2
ENTITIES
0
LINE
5
100
100
AcDbEntity
8
0
100
AcDbLine
10
303.12859028940233
20
-25.023533524420714
30
0
11
303.12859028940233
21
-30
31
0
0
LINE
5
101
100
AcDbEntity
8
0
100
AcDbLine
10
0
20
0
30
0
11
100
21
0
31
0
0
LINE
5
102
100
AcDbEntity
8
0
100
AcDbLine
10
100
20
0
30
0
11
100
21
150
31
0
0
LINE
5
103
100
AcDbEntity
8
0
100
AcDbLine
10
100
20
150
30
0
11
0
21
150
31
0
0
LINE
5
104
100
AcDbEntity
8
0
100
AcDbLine
10
0
20
150
30
0
11
0
21
0
31
0
0
LINE
5
105
100
AcDbEntity
8
0
100
AcDbLine
10
100
20
150
30
0
11
0
21
150
31
0
0
LINE
5
106
100
AcDbEntity
8
0
100
AcDbLine
10
100
20
0
30
0
11
100
21
150
31
0
0
LINE
5
107
100
AcDbEntity
8
0
100
AcDbLine
10
-100
20
150
30
0
11
-100
21
0
31
0
0
LINE
5
108
100
AcDbEntity
8
0
100
AcDbLine
10
0
20
0
30
0
11
0
21
150
31
0
0
LINE
5
109
100
AcDbEntity
8
0
100
AcDbLine
10
200
20
150
30
0
11
200
21
0
31
0
0
LINE
5
110
100
AcDbEntity
8
0
100
AcDbLine
10
100
20
0
30
0
11
100
21
150
31
0
0
LINE
5
111
100
AcDbEntity
8
0
100
AcDbLine
10
100
20
150
30
0
11
100
21
154.40000000000001
31
0
0
LINE
5
112
100
AcDbEntity
8
0
100
AcDbLine
10
100
20
154.40000000000001
30
0
11
106.05555555555556
21
154.40000000000001
31
0
0
LINE
5
113
100
AcDbEntity
8
0
100
AcDbLine
10
106.05555555555556
20
154.40000000000001
30
0
11
106.05555555555556
21
150
31
0
0
LINE
5
114
100
AcDbEntity
8
0
100
AcDbLine
10
106.05555555555556
20
150
30
0
11
111.11111111111113
21
150
31
0
0
LINE
5
115
100
AcDbEntity
8
0
100
AcDbLine
10
111.11111111111111
20
150
30
0
11
111.11111111111111
21
154.40000000000001
31
0
0
LINE
5
116
100
AcDbEntity
8
0
100
AcDbLine
10
111.11111111111111
20
154.40000000000001
30
0
11
117.16666666666667
21
154.40000000000001
31
0
0
LINE
5
117
100
AcDbEntity
8
0
100
AcDbLine
10
117.16666666666667
20
154.40000000000001
30
0
11
117.16666666666667
21
150
31
0
0
LINE
5
118
100
AcDbEntity
8
0
100
AcDbLine
10
117.16666666666667
20
150
30
0
11
122.22222222222223
21
150
31
0
0
LINE
5
119
100
AcDbEntity
8
0
100
AcDbLine
10
122.22222222222221
20
150
30
0
11
122.22222222222221
21
154.40000000000001
31
0
0
LINE
5
120
100
AcDbEntity
8
0
100
AcDbLine
10
122.22222222222221
20
154.40000000000001
30
0
11
128.2777777777778
21
154.40000000000001
31
0
0
LINE
5
121
100
AcDbEntity
8
0
100
AcDbLine
10
128.2777777777778
20
154.40000000000001
30
0
11
128.2777777777778
21
150
31
0
0
LINE
5
122
100
AcDbEntity
8
0
100
AcDbLine
10
128.2777777777778
20
150
30
0
11
133.33333333333334
21
150
31
0
0
LINE
5
123
100
AcDbEntity
8
0
100
AcDbLine
10
133.33333333333334
20
150
30
0
11
133.33333333333334
21
154.40000000000001
31
0
0
LINE
5
124
100
AcDbEntity
8
0
100
AcDbLine
10
133.33333333333334
20
154.40000000000001
30
0
11
139.38888888888891
21
154.40000000000001
31
0
0
LINE
5
125
100
AcDbEntity
8
0
100
AcDbLine
10
139.38888888888891
20
154.40000000000001
30
0
11
139.38888888888891
21
150
31
0
0
LINE
5
126
100
AcDbEntity
8
0
100
AcDbLine
10
139.38888888888891
20
150
30
0
11
144.44444444444446
21
150
31
0
0
LINE
5
127
100
AcDbEntity
8
0
100
AcDbLine
10
144.44444444444446
20
150
30
0
11
144.44444444444446
21
154.40000000000001
31
0
0
LINE
5
128
100
AcDbEntity
8
0
100
AcDbLine
10
144.44444444444446
20
154.40000000000001
30
0
11
150.5
21
154.40000000000001
31
0
0
LINE
5
129
100
AcDbEntity
8
0
100
AcDbLine
10
150.5
20
154.40000000000001
30
0
11
150.5
21
150
31
0
0
LINE
5
130
100
AcDbEntity
8
0
100
AcDbLine
10
150.5
20
150
30
0
11
155.55555555555557
21
150
31
0
0
LINE
5
131
100
AcDbEntity
8
0
100
AcDbLine
10
155.55555555555554
20
150
30
0
11
155.55555555555554
21
154.40000000000001
31
0
0
LINE
5
132
100
AcDbEntity
8
0
100
AcDbLine
10
155.55555555555554
20
154.40000000000001
30
0
11
161.61111111111111
21
154.40000000000001
31
0
0
LINE
5
133
100
AcDbEntity
8
0
100
AcDbLine
10
161.61111111111111
20
154.40000000000001
30
0
11
161.61111111111111
21
150
31
0
0
LINE
5
134
100
AcDbEntity
8
0
100
AcDbLine
10
161.61111111111111
20
150
30
0
11
166.66666666666671
21
150
31
0
0
LINE
5
135
100
AcDbEntity
8
0
100
AcDbLine
10
166.66666666666669
20
150
30
0
11
166.66666666666669
21
154.40000000000001
31
0
0
LINE
5
136
100
AcDbEntity
8
0
100
AcDbLine
10
166.66666666666669
20
154.40000000000001
30
0
11
172.72222222222223
21
154.40000000000001
31
0
0
LINE
5
137
100
AcDbEntity
8
0
100
AcDbLine
10
172.72222222222223
20
154.40000000000001
30
0
11
172.72222222222223
21
150
31
0
0
LINE
5
138
100
AcDbEntity
8
0
100
AcDbLine
10
172.72222222222223
20
150
30
0
11
177.77777777777777
21
150
31
0
0
LINE
5
139
100
AcDbEntity
8
0
100
AcDbLine
10
177.77777777777777
20
150
30
0
11
177.77777777777777
21
154.40000000000001
31
0
0
LINE
5
140
100
AcDbEntity
8
0
100
AcDbLine
10
177.77777777777777
20
154.40000000000001
30
0
11
183.83333333333337
21
154.40000000000001
31
0
0
LINE
5
141
100
AcDbEntity
8
0
100
AcDbLine
10
183.83333333333337
20
154.40000000000001
30
0
11
183.83333333333337
21
150
31
0
0
LINE
5
142
100
AcDbEntity
8
0
100
AcDbLine
10
183.83333333333337
20
150
30
0
11
188.88888888888891
21
150
31
0
0
LINE
5
143
100
AcDbEntity
8
0
100
AcDbLine
10
188.88888888888889
20
150
30
0
11
188.88888888888889
21
154.40000000000001
31
0
0
LINE
5
144
100
AcDbEntity
8
0
100
AcDbLine
10
188.88888888888889
20
154.40000000000001
30
0
11
194.94444444444443
21
154.40000000000001
31
0
0
LINE
5
145
100
AcDbEntity
8
0
100
AcDbLine
10
194.94444444444443
20
154.40000000000001
30
0
11
194.94444444444443
21
150
31
0
0
LINE
5
146
100
AcDbEntity
8
0
100
AcDbLine
10
194.94444444444443
20
150
30
0
11
200
21
150
31
0
0
LINE
5
147
100
AcDbEntity
8
0
100
AcDbLine
10
100
20
150
30
0
11
100
21
155.05555555555554
31
0
0
LINE
5
148
100
AcDbEntity
8
0
100
AcDbLine
10
100
20
155.05555555555554
30
0
11
104.39999999999999
21
155.05555555555554
31
0
0
LINE
5
149
100
AcDbEntity
8
0
100
AcDbLine
10
104.39999999999999
20
155.05555555555554
30
0
11
104.39999999999999
21
161.11111111111111
31
0
0
LINE
5
150
100
AcDbEntity
8
0
100
AcDbLine
10
104.39999999999999
20
161.11111111111111
30
0
11
99.898936449916448
21
161.11111111111111
31
0
0
LINE
5
151
100
AcDbEntity
8
0
100
AcDbLine
10
100
20
161.11111111111111
30
0
11
100
21
166.16666666666669
31
0
0
LINE
5
152
100
AcDbEntity
8
0
100
AcDbLine
10
100
20
166.16666666666669
30
0
11
104.39999999999999
21
166.16666666666669
31
0
0
LINE
5
153
100
AcDbEntity
8
0
100
AcDbLine
10
104.39999999999999
20
166.16666666666669
30
0
11
104.39999999999999
21
172.22222222222223
31
0
0
LINE
5
154
100
AcDbEntity
8
0
100
AcDbLine
10
104.39999999999999
20
172.22222222222223
30
0
11
99.898936449916448
21
172.22222222222223
31
0
0
LINE
5
155
100
AcDbEntity
8
0
100
AcDbLine
10
100
20
172.22222222222223
30
0
11
100
21
177.27777777777777
31
0
0
LINE
5
156
100
AcDbEntity
8
0
100
AcDbLine
10
100
20
177.27777777777777
30
0
11
104.39999999999999
21
177.27777777777777
31
0
0
LINE
5
157
100
AcDbEntity
8
0
100
AcDbLine
10
104.39999999999999
20
177.27777777777777
30
0
11
104.39999999999999
21
183.33333333333331
31
0
0
LINE
5
158
100
AcDbEntity
8
0
100
AcDbLine
10
104.39999999999999
20
183.33333333333331
30
0
11
99.898936449916448
21
183.33333333333331
31
0
0
LINE
5
159
100
AcDbEntity
8
0
100
AcDbLine
10
100
20
183.33333333333331
30
0
11
100
21
188.38888888888889
31
0
0
LINE
5
160
100
AcDbEntity
8
0
100
AcDbLine
10
100
20
188.38888888888889
30
0
11
104.39999999999999
21
188.38888888888889
31
0
0
LINE
5
161
100
AcDbEntity
8
0
100
AcDbLine
10
104.39999999999999
20
188.38888888888889
30
0
11
104.39999999999999
21
194.44444444444443
31
0
0
LINE
5
162
100
AcDbEntity
8
0
100
AcDbLine
10
104.39999999999999
20
194.44444444444443
30
0
11
99.898936449916448
21
194.44444444444443
31
0
0
LINE
5
163
100
AcDbEntity
8
0
100
AcDbLine
10
100
20
194.44444444444443
30
0
11
100
21
199.5
31
0
0
LINE
5
164
100
AcDbEntity
8
0
100
AcDbLine
10
100
20
199.5
30
0
11
104.39999999999999
21
199.5
31
0
0
LINE
5
165
100
AcDbEntity
8
0
100
AcDbLine
10
104.39999999999999
20
199.5
30
0
11
104.39999999999999
21
205.55555555555554
31
0
0
LINE
5
166
100
AcDbEntity
8
0
100
AcDbLine
10
104.39999999999999
20
205.55555555555554
30
0
11
99.898936449916448
21
205.55555555555554
31
0
0
LINE
5
167
100
AcDbEntity
8
0
100
AcDbLine
10
100
20
205.55555555555557
30
0
11
100
21
210.61111111111109
31
0
0
LINE
5
168
100
AcDbEntity
8
0
100
AcDbLine
10
100
20
210.61111111111109
30
0
11
104.39999999999999
21
210.61111111111109
31
0
0
LINE
5
169
100
AcDbEntity
8
0
100
AcDbLine
10
104.39999999999999
20
210.61111111111109
30
0
11
104.39999999999999
21
216.66666666666669
31
0
0
LINE
5
170
100
AcDbEntity
8
0
100
AcDbLine
10
104.39999999999999
20
216.66666666666669
30
0
11
99.898936449916448
21
216.66666666666669
31
0
0
LINE
5
171
100
AcDbEntity
8
0
100
AcDbLine
10
100
20
216.66666666666669
30
0
11
100
21
221.7222222222222
31
0
0
LINE
5
172
100
AcDbEntity
8
0
100
AcDbLine
10
100
20
221.7222222222222
30
0
11
104.39999999999999
21
221.7222222222222
31
0
0
LINE
5
173
100
AcDbEntity
8
0
100
AcDbLine
10
104.39999999999999
20
221.7222222222222
30
0
11
104.39999999999999
21
227.77777777777777
31
0
0
LINE
5
174
100
AcDbEntity
8
0
100
AcDbLine
10
104.39999999999999
20
227.77777777777777
30
0
11
99.898936449916448
21
227.77777777777777
31
0
0
LINE
5
175
100
AcDbEntity
8
0
100
AcDbLine
10
100
20
227.77777777777777
30
0
11
100
21
232.83333333333334
31
0
0
LINE
5
176
100
AcDbEntity
8
0
100
AcDbLine
10
100
20
232.83333333333334
30
0
11
104.39999999999999
21
232.83333333333334
31
0
0
LINE
5
177
100
AcDbEntity
8
0
100
AcDbLine
10
104.39999999999999
20
232.83333333333334
30
0
11
104.39999999999999
21
238.88888888888889
31
0
0
LINE
5
178
100
AcDbEntity
8
0
100
AcDbLine
10
104.39999999999999
20
238.88888888888889
30
0
11
99.898936449916448
21
238.88888888888889
31
0
0
LINE
5
179
100
AcDbEntity
8
0
100
AcDbLine
10
100
20
238.88888888888889
30
0
11
100
21
243.94444444444443
31
0
0
LINE
5
180
100
AcDbEntity
8
0
100
AcDbLine
10
100
20
243.94444444444443
30
0
11
104.39999999999999
21
243.94444444444443
31
0
0
LINE
5
181
100
AcDbEntity
8
0
100
AcDbLine
10
104.39999999999999
20
243.94444444444443
30
0
11
104.39999999999999
21
250
31
0
0
LINE
5
182
100
AcDbEntity
8
0
100
AcDbLine
10
104.39999999999999
20
250
30
0
11
99.898936449916448
21
250
31
0
0
LINE
5
183
100
AcDbEntity
8
0
100
AcDbLine
10
100
20
0
30
0
11
0
21
0
31
0
0
LINE
5
184
100
AcDbEntity
8
0
100
AcDbLine
10
0
20
-100
30
0
11
100
21
-100
31
0
0
LINE
5
185
100
AcDbEntity
8
0
100
AcDbLine
10
-4.399999999999995
20
-100
30
0
11
0.10106355008357924
21
-100.00000000000001
31
0
0
LINE
5
186
100
AcDbEntity
8
0
100
AcDbLine
10
-77.777777777777786
20
154.40000000000001
30
0
11
-83.833333333333371
21
154.40000000000001
31
0
0
LINE
5
187
100
AcDbEntity
8
0
100
AcDbLine
10
-33.333333333333343
20
150
30
0
11
-33.333333333333343
21
154.40000000000001
31
0
0
LINE
5
188
100
AcDbEntity
8
0
100
AcDbLine
10
-22.222222222222214
20
150
30
0
11
-22.222222222222214
21
154.40000000000001
31
0
0
LINE
5
189
100
AcDbEntity
8
0
100
AcDbLine
10
-6.0555555555555607
20
154.40000000000001
30
0
11
-6.0555555555555607
21
150
31
0
0
LINE
5
190
100
AcDbEntity
8
0
100
AcDbLine
10
-77.777777777777786
20
150
30
0
11
-77.777777777777786
21
154.40000000000001
31
0
0
LINE
5
191
100
AcDbEntity
8
0
100
AcDbLine
10
-55.555555555555557
20
150
30
0
11
-55.555555555555557
21
154.40000000000001
31
0
0
LINE
5
192
100
AcDbEntity
8
0
100
AcDbLine
10
-88.888888888888886
20
154.40000000000001
30
0
11
-94.944444444444429
21
154.40000000000001
31
0
0
LINE
5
193
100
AcDbEntity
8
0
100
AcDbLine
10
-55.555555555555557
20
154.40000000000001
30
0
11
-61.611111111111114
21
154.40000000000001
31
0
0
LINE
5
194
100
AcDbEntity
8
0
100
AcDbLine
10
-66.666666666666686
20
154.40000000000001
30
0
11
-72.722222222222229
21
154.40000000000001
31
0
0
LINE
5
195
100
AcDbEntity
8
0
100
AcDbLine
10
-88.888888888888886
20
150
30
0
11
-88.888888888888886
21
154.40000000000001
31
0
0
LINE
5
196
100
AcDbEntity
8
0
100
AcDbLine
10
-66.666666666666686
20
150
30
0
11
-66.666666666666686
21
154.40000000000001
31
0
0
LINE
5
197
100
AcDbEntity
8
0
100
AcDbLine
10
-94.944444444444429
20
154.40000000000001
30
0
11
-94.944444444444429
21
150
31
0
0
LINE
5
198
100
AcDbEntity
8
0
100
AcDbLine
10
-4.399999999999995
20
166.16666666666669
30
0
11
-4.399999999999995
21
172.22222222222223
31
0
0
LINE
5
199
100
AcDbEntity
8
0
100
AcDbLine
10
-4.399999999999995
20
221.7222222222222
30
0
11
-4.399999999999995
21
227.77777777777777
31
0
0
LINE
5
200
100
AcDbEntity
8
0
100
AcDbLine
10
-4.399999999999995
20
155.05555555555554
30
0
11
-4.399999999999995
21
161.11111111111111
31
0
0
LINE
5
201
100
AcDbEntity
8
0
100
AcDbLine
10
-4.399999999999995
20
177.27777777777777
30
0
11
-4.399999999999995
21
183.33333333333331
31
0
0
LINE
5
202
100
AcDbEntity
8
0
100
AcDbLine
10
-4.399999999999995
20
243.94444444444443
30
0
11
-4.399999999999995
21
250
31
0
0
LINE
5
203
100
AcDbEntity
8
0
100
AcDbLine
10
-4.399999999999995
20
199.5
30
0
11
-4.399999999999995
21
205.55555555555554
31
0
0
LINE
5
204
100
AcDbEntity
8
0
100
AcDbLine
10
-4.399999999999995
20
210.61111111111109
30
0
11
-4.399999999999995
21
216.66666666666669
31
0
0
LINE
5
205
100
AcDbEntity
8
0
100
AcDbLine
10
-4.399999999999995
20
232.83333333333334
30
0
11
-4.399999999999995
21
238.88888888888889
31
0
0
LINE
5
206
100
AcDbEntity
8
0
100
AcDbLine
10
-4.399999999999995
20
188.38888888888889
30
0
11
-4.399999999999995
21
194.44444444444443
31
0
0
LINE
5
207
100
AcDbEntity
8
0
100
AcDbLine
10
-83.833333333333371
20
154.40000000000001
30
0
11
-83.833333333333371
21
150
31
0
0
LINE
5
208
100
AcDbEntity
8
0
100
AcDbLine
10
-39.3888888888889
20
154.40000000000001
30
0
11
-39.3888888888889
21
150
31
0
0
LINE
5
209
100
AcDbEntity
8
0
100
AcDbLine
10
-22.222222222222214
20
154.40000000000001
30
0
11
-28.277777777777793
21
154.40000000000001
31
0
0
LINE
5
210
100
AcDbEntity
8
0
100
AcDbLine
10
0
20
188.38888888888889
30
0
11
-4.399999999999995
21
188.38888888888889
31
0
0
LINE
5
211
100
AcDbEntity
8
0
100
AcDbLine
10
0
20
221.7222222222222
30
0
11
-4.399999999999995
21
221.7222222222222
31
0
0
LINE
5
212
100
AcDbEntity
8
0
100
AcDbLine
10
0
20
177.27777777777777
30
0
11
-4.399999999999995
21
177.27777777777777
31
0
0
LINE
5
213
100
AcDbEntity
8
0
100
AcDbLine
10
-72.722222222222229
20
154.40000000000001
30
0
11
-72.722222222222229
21
150
31
0
0
LINE
5
214
100
AcDbEntity
8
0
100
AcDbLine
10
-50.500000000000007
20
154.40000000000001
30
0
11
-50.500000000000007
21
150
31
0
0
LINE
5
215
100
AcDbEntity
8
0
100
AcDbLine
10
0
20
155.05555555555554
30
0
11
-4.399999999999995
21
155.05555555555554
31
0
0
LINE
5
216
100
AcDbEntity
8
0
100
AcDbLine
10
-17.166666666666668
20
154.40000000000001
30
0
11
-17.166666666666668
21
150
31
0
0
LINE
5
217
100
AcDbEntity
8
0
100
AcDbLine
10
-44.444444444444443
20
154.40000000000001
30
0
11
-50.500000000000007
21
154.40000000000001
31
0
0
LINE
5
218
100
AcDbEntity
8
0
100
AcDbLine
10
-28.277777777777793
20
154.40000000000001
30
0
11
-28.277777777777793
21
150
31
0
0
LINE
5
219
100
AcDbEntity
8
0
100
AcDbLine
10
-11.111111111111107
20
150
30
0
11
-11.111111111111107
21
154.40000000000001
31
0
0
LINE
5
220
100
AcDbEntity
8
0
100
AcDbLine
10
-33.333333333333343
20
154.40000000000001
30
0
11
-39.3888888888889
21
154.40000000000001
31
0
0
LINE
5
221
100
AcDbEntity
8
0
100
AcDbLine
10
-61.611111111111114
20
154.40000000000001
30
0
11
-61.611111111111114
21
150
31
0
0
LINE
5
222
100
AcDbEntity
8
0
100
AcDbLine
10
-44.444444444444443
20
150
30
0
11
-44.444444444444443
21
154.40000000000001
31
0
0
LINE
5
223
100
AcDbEntity
8
0
100
AcDbLine
10
-11.111111111111107
20
154.40000000000001
30
0
11
-17.166666666666668
21
154.40000000000001
31
0
0
LINE
5
224
100
AcDbEntity
8
0
100
AcDbLine
10
0
20
154.40000000000001
30
0
11
-6.0555555555555607
21
154.40000000000001
31
0
0
LINE
5
225
100
AcDbEntity
8
0
100
AcDbLine
10
-4.399999999999995
20
172.22222222222223
30
0
11
0.1010635500835555
21
172.22222222222223
31
0
0
LINE
5
226
100
AcDbEntity
8
0
100
AcDbLine
10
-4.399999999999995
20
216.66666666666669
30
0
11
0.1010635500835555
21
216.66666666666669
31
0
0
LINE
5
227
100
AcDbEntity
8
0
100
AcDbLine
10
0
20
199.5
30
0
11
-4.399999999999995
21
199.5
31
0
0
LINE
5
228
100
AcDbEntity
8
0
100
AcDbLine
10
-4.399999999999995
20
250
30
0
11
0.1010635500835555
21
250
31
0
0
LINE
5
229
100
AcDbEntity
8
0
100
AcDbLine
10
-4.399999999999995
20
227.77777777777777
30
0
11
0.1010635500835555
21
227.77777777777777
31
0
0
LINE
5
230
100
AcDbEntity
8
0
100
AcDbLine
10
0
20
243.94444444444443
30
0
11
-4.399999999999995
21
243.94444444444443
31
0
0
LINE
5
231
100
AcDbEntity
8
0
100
AcDbLine
10
0
20
166.16666666666669
30
0
11
-4.399999999999995
21
166.16666666666669
31
0
0
LINE
5
232
100
AcDbEntity
8
0
100
AcDbLine
10
0
20
232.83333333333334
30
0
11
-4.399999999999995
21
232.83333333333334
31
0
0
LINE
5
233
100
AcDbEntity
8
0
100
AcDbLine
10
-4.399999999999995
20
183.33333333333331
30
0
11
0.1010635500835555
21
183.33333333333331
31
0
0
LINE
5
234
100
AcDbEntity
8
0
100
AcDbLine
10
-4.399999999999995
20
205.55555555555554
30
0
11
0.1010635500835555
21
205.55555555555554
31
0
0
LINE
5
235
100
AcDbEntity
8
0
100
AcDbLine
10
-4.399999999999995
20
238.88888888888889
30
0
11
0.1010635500835555
21
238.88888888888889
31
0
0
LINE
5
236
100
AcDbEntity
8
0
100
AcDbLine
10
-4.399999999999995
20
194.44444444444443
30
0
11
0.1010635500835555
21
194.44444444444443
31
0
0
LINE
5
237
100
AcDbEntity
8
0
100
AcDbLine
10
-4.399999999999995
20
161.11111111111111
30
0
11
0.1010635500835555
21
161.11111111111111
31
0
0
LINE
5
238
100
AcDbEntity
8
0
100
AcDbLine
10
0
20
210.61111111111109
30
0
11
-4.399999999999995
21
210.61111111111109
31
0
0
LINE
5
239
100
AcDbEntity
8
0
100
AcDbLine
10
104.39999999999999
20
-5.0555555555555465
30
0
11
104.39999999999999
21
-11.111111111111107
31
0
0
LINE
5
240
100
AcDbEntity
8
0
100
AcDbLine
10
111.11111111111111
20
0
30
0
11
111.11111111111111
21
-4.399999999999995
31
0
0
LINE
5
241
100
AcDbEntity
8
0
100
AcDbLine
10
100
20
0
30
0
11
100
21
-4.399999999999995
31
0
0
LINE
5
242
100
AcDbEntity
8
0
100
AcDbLine
10
144.44444444444446
20
-4.399999999999995
30
0
11
150.5
21
-4.399999999999995
31
0
0
LINE
5
243
100
AcDbEntity
8
0
100
AcDbLine
10
155.55555555555554
20
-4.399999999999995
30
0
11
161.61111111111111
21
-4.399999999999995
31
0
0
LINE
5
244
100
AcDbEntity
8
0
100
AcDbLine
10
133.33333333333334
20
0
30
0
11
133.33333333333334
21
-4.399999999999995
31
0
0
LINE
5
245
100
AcDbEntity
8
0
100
AcDbLine
10
188.88888888888889
20
-4.399999999999995
30
0
11
194.94444444444443
21
-4.399999999999995
31
0
0
LINE
5
246
100
AcDbEntity
8
0
100
AcDbLine
10
0
20
-71.7222222222222
30
0
11
-4.399999999999995
21
-71.7222222222222
31
0
0
LINE
5
247
100
AcDbEntity
8
0
100
AcDbLine
10
166.66666666666669
20
-4.399999999999995
30
0
11
172.72222222222223
21
-4.399999999999995
31
0
0
LINE
5
248
100
AcDbEntity
8
0
100
AcDbLine
10
172.72222222222223
20
-4.399999999999995
30
0
11
172.72222222222223
21
0
31
0
0
LINE
5
249
100
AcDbEntity
8
0
100
AcDbLine
10
133.33333333333334
20
-4.399999999999995
30
0
11
139.38888888888891
21
-4.399999999999995
31
0
0
LINE
5
250
100
AcDbEntity
8
0
100
AcDbLine
10
144.44444444444446
20
0
30
0
11
144.44444444444446
21
-4.399999999999995
31
0
0
LINE
5
251
100
AcDbEntity
8
0
100
AcDbLine
10
177.77777777777777
20
-4.399999999999995
30
0
11
183.83333333333337
21
-4.399999999999995
31
0
0
LINE
5
252
100
AcDbEntity
8
0
100
AcDbLine
10
104.39999999999999
20
-55.555555555555536
30
0
11
99.898936449916448
21
-55.555555555555536
31
0
0
LINE
5
253
100
AcDbEntity
8
0
100
AcDbLine
10
188.88888888888889
20
0
30
0
11
188.88888888888889
21
-4.399999999999995
31
0
0
LINE
5
254
100
AcDbEntity
8
0
100
AcDbLine
10
150.5
20
-4.399999999999995
30
0
11
150.5
21
0
31
0
0
LINE
5
255
100
AcDbEntity
8
0
100
AcDbLine
10
-4.399999999999995
20
-5.0555555555555465
30
0
11
-4.399999999999995
21
-11.111111111111107
31
0
0
LINE
5
256
100
AcDbEntity
8
0
100
AcDbLine
10
117.16666666666667
20
-4.399999999999995
30
0
11
117.16666666666667
21
0
31
0
0
LINE
5
257
100
AcDbEntity
8
0
100
AcDbLine
10
106.05555555555556
20
-4.399999999999995
30
0
11
106.05555555555556
21
0
31
0
0
LINE
5
258
100
AcDbEntity
8
0
100
AcDbLine
10
100
20
-66.666666666666686
30
0
11
100
21
-71.7222222222222
31
0
0
LINE
5
259
100
AcDbEntity
8
0
100
AcDbLine
10
104.39999999999999
20
-77.777777777777786
30
0
11
99.898936449916448
21
-77.777777777777786
31
0
0
LINE
5
260
100
AcDbEntity
8
0
100
AcDbLine
10
104.39999999999999
20
-71.7222222222222
30
0
11
104.39999999999999
21
-77.777777777777786
31
0
0
LINE
5
261
100
AcDbEntity
8
0
100
AcDbLine
10
104.39999999999999
20
-49.499999999999993
30
0
11
104.39999999999999
21
-55.555555555555536
31
0
0
LINE
5
262
100
AcDbEntity
8
0
100
AcDbLine
10
104.39999999999999
20
-38.388888888888886
30
0
11
104.39999999999999
21
-44.444444444444429
31
0
0
LINE
5
263
100
AcDbEntity
8
0
100
AcDbLine
10
128.2777777777778
20
-4.399999999999995
30
0
11
128.2777777777778
21
0
31
0
0
LINE
5
264
100
AcDbEntity
8
0
100
AcDbLine
10
-22.222222222222214
20
-4.399999999999995
30
0
11
-28.277777777777793
21
-4.399999999999995
31
0
0
LINE
5
265
100
AcDbEntity
8
0
100
AcDbLine
10
161.61111111111111
20
-4.399999999999995
30
0
11
161.61111111111111
21
0
31
0
0
LINE
5
266
100
AcDbEntity
8
0
100
AcDbLine
10
-28.277777777777793
20
-4.399999999999995
30
0
11
-28.277777777777793
21
0
31
0
0
LINE
5
267
100
AcDbEntity
8
0
100
AcDbLine
10
100
20
-60.6111111111111
30
0
11
104.39999999999999
21
-60.6111111111111
31
0
0
LINE
5
268
100
AcDbEntity
8
0
100
AcDbLine
10
122.22222222222221
20
0
30
0
11
122.22222222222221
21
-4.399999999999995
31
0
0
LINE
5
269
100
AcDbEntity
8
0
100
AcDbLine
10
-17.166666666666668
20
-4.399999999999995
30
0
11
-17.166666666666668
21
0
31
0
0
LINE
5
270
100
AcDbEntity
8
0
100
AcDbLine
10
194.94444444444443
20
-4.399999999999995
30
0
11
194.94444444444443
21
0
31
0
0
LINE
5
271
100
AcDbEntity
8
0
100
AcDbLine
10
177.77777777777777
20
0
30
0
11
177.77777777777777
21
-4.399999999999995
31
0
0
LINE
5
272
100
AcDbEntity
8
0
100
AcDbLine
10
111.11111111111111
20
-4.399999999999995
30
0
11
117.16666666666667
21
-4.399999999999995
31
0
0
LINE
5
273
100
AcDbEntity
8
0
100
AcDbLine
10
100
20
-4.399999999999995
30
0
11
106.05555555555556
21
-4.399999999999995
31
0
0
LINE
5
274
100
AcDbEntity
8
0
100
AcDbLine
10
104.39999999999999
20
-27.277777777777779
30
0
11
104.39999999999999
21
-33.333333333333321
31
0
0
LINE
5
275
100
AcDbEntity
8
0
100
AcDbLine
10
122.22222222222221
20
-4.399999999999995
30
0
11
128.2777777777778
21
-4.399999999999995
31
0
0
LINE
5
276
100
AcDbEntity
8
0
100
AcDbLine
10
-6.0555555555555607
20
-4.399999999999995
30
0
11
-6.0555555555555607
21
0
31
0
0
LINE
5
277
100
AcDbEntity
8
0
100
AcDbLine
10
166.66666666666669
20
0
30
0
11
166.66666666666669
21
-4.399999999999995
31
0
0
LINE
5
278
100
AcDbEntity
8
0
100
AcDbLine
10
0
20
-4.399999999999995
30
0
11
-6.0555555555555607
21
-4.399999999999995
31
0
0
LINE
5
279
100
AcDbEntity
8
0
100
AcDbLine
10
100
20
-77.777777777777786
30
0
11
100
21
-82.833333333333343
31
0
0
LINE
5
280
100
AcDbEntity
8
0
100
AcDbLine
10
104.39999999999999
20
-11.111111111111107
30
0
11
99.898936449916448
21
-11.111111111111107
31
0
0
LINE
5
281
100
AcDbEntity
8
0
100
AcDbLine
10
104.39999999999999
20
-93.944444444444429
30
0
11
104.39999999999999
21
-100
31
0
0
LINE
5
282
100
AcDbEntity
8
0
100
AcDbLine
10
104.39999999999999
20
-66.666666666666686
30
0
11
99.898936449916448
21
-66.666666666666686
31
0
0
LINE
5
283
100
AcDbEntity
8
0
100
AcDbLine
10
100
20
-44.444444444444429
30
0
11
100
21
-49.499999999999993
31
0
0
LINE
5
284
100
AcDbEntity
8
0
100
AcDbLine
10
104.39999999999999
20
-100
30
0
11
99.898936449916448
21
-100
31
0
0
LINE
5
285
100
AcDbEntity
8
0
100
AcDbLine
10
104.39999999999999
20
-33.333333333333321
30
0
11
99.898936449916448
21
-33.333333333333321
31
0
0
LINE
5
286
100
AcDbEntity
8
0
100
AcDbLine
10
100
20
-49.499999999999993
30
0
11
104.39999999999999
21
-49.499999999999993
31
0
0
LINE
5
287
100
AcDbEntity
8
0
100
AcDbLine
10
100
20
-71.7222222222222
30
0
11
104.39999999999999
21
-71.7222222222222
31
0
0
LINE
5
288
100
AcDbEntity
8
0
100
AcDbLine
10
100
20
-88.888888888888886
30
0
11
100
21
-93.944444444444429
31
0
0
LINE
5
289
100
AcDbEntity
8
0
100
AcDbLine
10
100
20
-93.944444444444429
30
0
11
104.39999999999999
21
-93.944444444444429
31
0
0
LINE
5
290
100
AcDbEntity
8
0
100
AcDbLine
10
100
20
-82.833333333333343
30
0
11
104.39999999999999
21
-82.833333333333343
31
0
0
LINE
5
291
100
AcDbEntity
8
0
100
AcDbLine
10
104.39999999999999
20
-60.6111111111111
30
0
11
104.39999999999999
21
-66.666666666666686
31
0
0
LINE
5
292
100
AcDbEntity
8
0
100
AcDbLine
10
100
20
-55.555555555555571
30
0
11
100
21
-60.6111111111111
31
0
0
LINE
5
293
100
AcDbEntity
8
0
100
AcDbLine
10
104.39999999999999
20
-82.833333333333343
30
0
11
104.39999999999999
21
-88.888888888888886
31
0
0
LINE
5
294
100
AcDbEntity
8
0
100
AcDbLine
10
104.39999999999999
20
-44.444444444444429
30
0
11
99.898936449916448
21
-44.444444444444429
31
0
0
LINE
5
295
100
AcDbEntity
8
0
100
AcDbLine
10
100
20
-5.0555555555555465
30
0
11
104.39999999999999
21
-5.0555555555555465
31
0
0
LINE
5
296
100
AcDbEntity
8
0
100
AcDbLine
10
104.39999999999999
20
-88.888888888888886
30
0
11
99.898936449916448
21
-88.888888888888886
31
0
0
LINE
5
297
100
AcDbEntity
8
0
100
AcDbLine
10
104.39999999999999
20
-22.222222222222214
30
0
11
99.898936449916448
21
-22.222222222222214
31
0
0
LINE
5
298
100
AcDbEntity
8
0
100
AcDbLine
10
104.39999999999999
20
-16.166666666666671
30
0
11
104.39999999999999
21
-22.222222222222214
31
0
0
LINE
5
299
100
AcDbEntity
8
0
100
AcDbLine
10
100
20
-33.333333333333321
30
0
11
100
21
-38.388888888888886
31
0
0
LINE
5
300
100
AcDbEntity
8
0
100
AcDbLine
10
100
20
-27.277777777777779
30
0
11
104.39999999999999
21
-27.277777777777779
31
0
0
LINE
5
301
100
AcDbEntity
8
0
100
AcDbLine
10
100
20
-22.222222222222214
30
0
11
100
21
-27.277777777777779
31
0
0
LINE
5
302
100
AcDbEntity
8
0
100
AcDbLine
10
100
20
-16.166666666666671
30
0
11
104.39999999999999
21
-16.166666666666671
31
0
0
LINE
5
303
100
AcDbEntity
8
0
100
AcDbLine
10
100
20
-11.111111111111107
30
0
11
100
21
-16.166666666666671
31
0
0
LINE
5
304
100
AcDbEntity
8
0
100
AcDbLine
10
100
20
-38.388888888888886
30
0
11
104.39999999999999
21
-38.388888888888886
31
0
0
LINE
5
305
100
AcDbEntity
8
0
100
AcDbLine
10
-66.666666666666686
20
-4.399999999999995
30
0
11
-72.722222222222229
21
-4.399999999999995
31
0
0
LINE
5
306
100
AcDbEntity
8
0
100
AcDbLine
10
-88.888888888888886
20
-4.399999999999995
30
0
11
-94.944444444444429
21
-4.399999999999995
31
0
0
LINE
5
307
100
AcDbEntity
8
0
100
AcDbLine
10
-4.399999999999995
20
-27.277777777777779
30
0
11
-4.399999999999995
21
-33.333333333333321
31
0
0
LINE
5
308
100
AcDbEntity
8
0
100
AcDbLine
10
-55.555555555555557
20
0
30
0
11
-55.555555555555557
21
-4.399999999999995
31
0
0
LINE
5
309
100
AcDbEntity
8
0
100
AcDbLine
10
-4.399999999999995
20
-82.833333333333343
30
0
11
-4.399999999999995
21
-88.888888888888886
31
0
0
LINE
5
310
100
AcDbEntity
8
0
100
AcDbLine
10
-4.399999999999995
20
-60.6111111111111
30
0
11
-4.399999999999995
21
-66.666666666666686
31
0
0
LINE
5
311
100
AcDbEntity
8
0
100
AcDbLine
10
-77.777777777777786
20
0
30
0
11
-77.777777777777786
21
-4.399999999999995
31
0
0
LINE
5
312
100
AcDbEntity
8
0
100
AcDbLine
10
-4.399999999999995
20
-93.944444444444429
30
0
11
-4.399999999999995
21
-100
31
0
0
LINE
5
313
100
AcDbEntity
8
0
100
AcDbLine
10
-83.833333333333371
20
-4.399999999999995
30
0
11
-83.833333333333371
21
0
31
0
0
LINE
5
314
100
AcDbEntity
8
0
100
AcDbLine
10
-55.555555555555557
20
-4.399999999999995
30
0
11
-61.611111111111114
21
-4.399999999999995
31
0
0
LINE
5
315
100
AcDbEntity
8
0
100
AcDbLine
10
0
20
-5.0555555555555465
30
0
11
-4.399999999999995
21
-5.0555555555555465
31
0
0
LINE
5
316
100
AcDbEntity
8
0
100
AcDbLine
10
183.83333333333337
20
-4.399999999999995
30
0
11
183.83333333333337
21
0
31
0
0
LINE
5
317
100
AcDbEntity
8
0
100
AcDbLine
10
-11.111111111111107
20
-4.399999999999995
30
0
11
-17.166666666666668
21
-4.399999999999995
31
0
0
LINE
5
318
100
AcDbEntity
8
0
100
AcDbLine
10
155.55555555555554
20
0
30
0
11
155.55555555555554
21
-4.399999999999995
31
0
0
LINE
5
319
100
AcDbEntity
8
0
100
AcDbLine
10
-4.399999999999995
20
-22.222222222222214
30
0
11
0.1010635500835555
21
-22.222222222222214
31
0
0
LINE
5
320
100
AcDbEntity
8
0
100
AcDbLine
10
-4.399999999999995
20
-16.166666666666671
30
0
11
-4.399999999999995
21
-22.222222222222214
31
0
0
LINE
5
321
100
AcDbEntity
8
0
100
AcDbLine
10
139.38888888888891
20
-4.399999999999995
30
0
11
139.38888888888891
21
0
31
0
0
LINE
5
322
100
AcDbEntity
8
0
100
AcDbLine
10
-4.399999999999995
20
-77.777777777777786
30
0
11
0.1010635500835555
21
-77.777777777777786
31
0
0
LINE
5
323
100
AcDbEntity
8
0
100
AcDbLine
10
100
20
0
30
0
11
100
21
-5.0555555555555465
31
0
0
LINE
5
324
100
AcDbEntity
8
0
100
AcDbLine
10
0
20
-82.833333333333343
30
0
11
-4.399999999999995
21
-82.833333333333343
31
0
0
LINE
5
325
100
AcDbEntity
8
0
100
AcDbLine
10
-22.222222222222214
20
0
30
0
11
-22.222222222222214
21
-4.399999999999995
31
0
0
LINE
5
326
100
AcDbEntity
8
0
100
AcDbLine
10
-33.333333333333343
20
-4.399999999999995
30
0
11
-39.3888888888889
21
-4.399999999999995
31
0
0
LINE
5
327
100
AcDbEntity
8
0
100
AcDbLine
10
-11.111111111111107
20
0
30
0
11
-11.111111111111107
21
-4.399999999999995
31
0
0
LINE
5
328
100
AcDbEntity
8
0
100
AcDbLine
10
-4.399999999999995
20
-44.444444444444429
30
0
11
0.1010635500835555
21
-44.444444444444429
31
0
0
LINE
5
329
100
AcDbEntity
8
0
100
AcDbLine
10
-77.777777777777786
20
-4.399999999999995
30
0
11
-83.833333333333371
21
-4.399999999999995
31
0
0
LINE
5
330
100
AcDbEntity
8
0
100
AcDbLine
10
-50.500000000000007
20
-4.399999999999995
30
0
11
-50.500000000000007
21
0
31
0
0
LINE
5
331
100
AcDbEntity
8
0
100
AcDbLine
10
-61.611111111111114
20
-4.399999999999995
30
0
11
-61.611111111111114
21
0
31
0
0
LINE
5
332
100
AcDbEntity
8
0
100
AcDbLine
10
-4.399999999999995
20
-33.333333333333321
30
0
11
0.1010635500835555
21
-33.333333333333321
31
0
0
LINE
5
333
100
AcDbEntity
8
0
100
AcDbLine
10
0
20
-38.388888888888886
30
0
11
-4.399999999999995
21
-38.388888888888886
31
0
0
LINE
5
334
100
AcDbEntity
8
0
100
AcDbLine
10
0
20
-16.166666666666671
30
0
11
-4.399999999999995
21
-16.166666666666671
31
0
0
LINE
5
335
100
AcDbEntity
8
0
100
AcDbLine
10
0
20
-27.277777777777779
30
0
11
-4.399999999999995
21
-27.277777777777779
31
0
0
LINE
5
336
100
AcDbEntity
8
0
100
AcDbLine
10
-66.666666666666686
20
0
30
0
11
-66.666666666666686
21
-4.399999999999995
31
0
0
LINE
5
337
100
AcDbEntity
8
0
100
AcDbLine
10
-4.399999999999995
20
-100
30
0
11
0.1010635500835555
21
-100
31
0
0
LINE
5
338
100
AcDbEntity
8
0
100
AcDbLine
10
-44.444444444444443
20
0
30
0
11
-44.444444444444443
21
-4.399999999999995
31
0
0
LINE
5
339
100
AcDbEntity
8
0
100
AcDbLine
10
-88.888888888888886
20
0
30
0
11
-88.888888888888886
21
-4.399999999999995
31
0
0
LINE
5
340
100
AcDbEntity
8
0
100
AcDbLine
10
-94.944444444444429
20
-4.399999999999995
30
0
11
-94.944444444444429
21
0
31
0
0
LINE
5
341
100
AcDbEntity
8
0
100
AcDbLine
10
-44.444444444444443
20
-4.399999999999995
30
0
11
-50.500000000000007
21
-4.399999999999995
31
0
0
LINE
5
342
100
AcDbEntity
8
0
100
AcDbLine
10
-4.399999999999995
20
-71.7222222222222
30
0
11
-4.399999999999995
21
-77.777777777777786
31
0
0
LINE
5
343
100
AcDbEntity
8
0
100
AcDbLine
10
-4.399999999999995
20
-49.499999999999993
30
0
11
-4.399999999999995
21
-55.555555555555536
31
0
0
LINE
5
344
100
AcDbEntity
8
0
100
AcDbLine
10
-72.722222222222229
20
-4.399999999999995
30
0
11
-72.722222222222229
21
0
31
0
0
LINE
5
345
100
AcDbEntity
8
0
100
AcDbLine
10
-4.399999999999995
20
-38.388888888888886
30
0
11
-4.399999999999995
21
-44.444444444444429
31
0
0
LINE
5
346
100
AcDbEntity
8
0
100
AcDbLine
10
-4.399999999999995
20
-66.666666666666686
30
0
11
0.1010635500835555
21
-66.666666666666686
31
0
0
LINE
5
347
100
AcDbEntity
8
0
100
AcDbLine
10
0
20
-49.499999999999993
30
0
11
-4.399999999999995
21
-49.499999999999993
31
0
0
LINE
5
348
100
AcDbEntity
8
0
100
AcDbLine
10
-39.3888888888889
20
-4.399999999999995
30
0
11
-39.3888888888889
21
0
31
0
0
LINE
5
349
100
AcDbEntity
8
0
100
AcDbLine
10
-4.399999999999995
20
-88.888888888888886
30
0
11
0.1010635500835555
21
-88.888888888888886
31
0
0
LINE
5
350
100
AcDbEntity
8
0
100
AcDbLine
10
-33.333333333333343
20
0
30
0
11
-33.333333333333343
21
-4.399999999999995
31
0
0
LINE
5
351
100
AcDbEntity
8
0
100
AcDbLine
10
0
20
-93.944444444444429
30
0
11
-4.399999999999995
21
-93.944444444444429
31
0
0
LINE
5
352
100
AcDbEntity
8
0
100
AcDbLine
10
0
20
-60.6111111111111
30
0
11
-4.399999999999995
21
-60.6111111111111
31
0
0
LINE
5
353
100
AcDbEntity
8
0
100
AcDbLine
10
-4.399999999999995
20
-55.555555555555536
30
0
11
0.1010635500835555
21
-55.555555555555536
31
0
0
LINE
5
354
100
AcDbEntity
8
0
100
AcDbLine
10
-4.399999999999995
20
-11.111111111111107
30
0
11
0.1010635500835555
21
-11.111111111111107
31
0
0
LINE
5
355
100
AcDbEntity
8
0
100
AcDbLine
10
0
20
250
30
0
11
99.898936449916448
21
250
31
0
0
LWPOLYLINE
5
356
100
AcDbEntity
8
0
100
AcDbPolyline
90
8
70
1
43
0.0
10
200
20
0
10
300
20
0
10
300
20
150
10
308
20
150
10
308
20
-0.0079207340278308891
10
300
20
-0.0079207340278308891
10
300
20
150
10
200
20
150
0
LWPOLYLINE
5
357
100
AcDbEntity
8
0
100
AcDbPolyline
90
4
70
1
43
0.0
10
200
20
150
10
300
20
150
10
300
20
158
10
200
20
158
0
LINE
5
358
100
AcDbEntity
8
0
100
AcDbLine
10
310.55472786328676
20
-0.0079207340278308891
30
0
11
300
21
-0.0079207340278308891
31
0
0
LINE
5
359
100
AcDbEntity
8
0
100
AcDbLine
10
300
20
-0.0079207340278308891
30
0
11
300
21
158
31
0
0
LWPOLYLINE
5
360
100
AcDbEntity
8
0
100
AcDbPolyline
90
4
70
1
43
0.0
10
200
20
0
10
300
20
0
10
300
20
-8
10
200
20
-8
0
ENDSEC
0
SECTION
2
OBJECTS
0
DICTIONARY
5
C
100
AcDbDictionary
3
ACAD_GROUP
350
D
3
ACAD_MLINESTYLE
350
17
0
DICTIONARY
5
D
100
AcDbDictionary
0
DICTIONARY
5
1A
330
C
100
AcDbDictionary
0
DICTIONARY
5
17
100
AcDbDictionary
0
ENDSEC
0
EOF
